<mxfile host="app.diagrams.net" modified="2021-04-21T08:43:27.092Z" agent="5.0 (Windows NT 10.0; Win64; x64) AppleWebKit/537.36 (KHTML, like Gecko) Chrome/89.0.4389.128 Safari/537.36" etag="fY7SzQ73pQQX1y-H-GEu" version="14.6.3" type="github">
  <diagram id="C5RBs43oDa-KdzZeNtuy" name="Page-1">
    <mxGraphModel dx="1328" dy="773" grid="1" gridSize="10" guides="1" tooltips="1" connect="1" arrows="1" fold="1" page="1" pageScale="1" pageWidth="1169" pageHeight="827" background="#F4F1DE" math="0" shadow="0">
      <root>
        <object label="" BatchID="211" id="WIyWlLk6GJQsqaUBKTNV-0">
          <mxCell />
        </object>
        <mxCell id="WIyWlLk6GJQsqaUBKTNV-1" parent="WIyWlLk6GJQsqaUBKTNV-0" />
        <mxCell id="yTWM4LRYes1PWLr559-A-1" value="Academy" style="shape=table;html=1;whiteSpace=wrap;startSize=30;container=1;collapsible=0;childLayout=tableLayout;fixedRows=1;rowLines=0;fontStyle=1;align=center;fillColor=#a0522d;strokeColor=#6D1F00;fontColor=#ffffff;" vertex="1" parent="WIyWlLk6GJQsqaUBKTNV-1">
          <mxGeometry x="69" y="200" width="140" height="110" as="geometry" />
        </mxCell>
        <mxCell id="yTWM4LRYes1PWLr559-A-2" value="" style="shape=partialRectangle;html=1;whiteSpace=wrap;collapsible=0;dropTarget=0;pointerEvents=0;fillColor=none;top=0;left=0;bottom=1;right=0;points=[[0,0.5],[1,0.5]];portConstraint=eastwest;strokeColor=#E07A5F;fontColor=#393C56;" vertex="1" parent="yTWM4LRYes1PWLr559-A-1">
          <mxGeometry y="30" width="140" height="20" as="geometry" />
        </mxCell>
        <mxCell id="yTWM4LRYes1PWLr559-A-3" value="Pk" style="shape=partialRectangle;html=1;whiteSpace=wrap;connectable=0;fillColor=none;top=0;left=0;bottom=0;right=0;overflow=hidden;strokeColor=#E07A5F;fontColor=#393C56;" vertex="1" parent="yTWM4LRYes1PWLr559-A-2">
          <mxGeometry width="31" height="20" as="geometry" />
        </mxCell>
        <mxCell id="yTWM4LRYes1PWLr559-A-4" value="AcademyId" style="shape=partialRectangle;html=1;whiteSpace=wrap;connectable=0;fillColor=none;top=0;left=0;bottom=0;right=0;align=left;spacingLeft=6;overflow=hidden;strokeColor=#E07A5F;fontColor=#393C56;" vertex="1" parent="yTWM4LRYes1PWLr559-A-2">
          <mxGeometry x="31" width="109" height="20" as="geometry" />
        </mxCell>
        <mxCell id="yTWM4LRYes1PWLr559-A-5" value="" style="shape=partialRectangle;html=1;whiteSpace=wrap;collapsible=0;dropTarget=0;pointerEvents=0;fillColor=none;top=0;left=0;bottom=0;right=0;points=[[0,0.5],[1,0.5]];portConstraint=eastwest;strokeColor=#E07A5F;fontColor=#393C56;" vertex="1" parent="yTWM4LRYes1PWLr559-A-1">
          <mxGeometry y="50" width="140" height="20" as="geometry" />
        </mxCell>
        <mxCell id="yTWM4LRYes1PWLr559-A-6" value="" style="shape=partialRectangle;html=1;whiteSpace=wrap;connectable=0;fillColor=none;top=0;left=0;bottom=0;right=0;overflow=hidden;strokeColor=#E07A5F;fontColor=#393C56;" vertex="1" parent="yTWM4LRYes1PWLr559-A-5">
          <mxGeometry width="31" height="20" as="geometry" />
        </mxCell>
        <mxCell id="yTWM4LRYes1PWLr559-A-7" value="Name(Unique)" style="shape=partialRectangle;html=1;whiteSpace=wrap;connectable=0;fillColor=none;top=0;left=0;bottom=0;right=0;align=left;spacingLeft=6;overflow=hidden;strokeColor=#E07A5F;fontColor=#393C56;" vertex="1" parent="yTWM4LRYes1PWLr559-A-5">
          <mxGeometry x="31" width="109" height="20" as="geometry" />
        </mxCell>
        <mxCell id="yTWM4LRYes1PWLr559-A-8" value="" style="shape=partialRectangle;html=1;whiteSpace=wrap;collapsible=0;dropTarget=0;pointerEvents=0;fillColor=none;top=0;left=0;bottom=0;right=0;points=[[0,0.5],[1,0.5]];portConstraint=eastwest;strokeColor=#E07A5F;fontColor=#393C56;" vertex="1" parent="yTWM4LRYes1PWLr559-A-1">
          <mxGeometry y="70" width="140" height="20" as="geometry" />
        </mxCell>
        <mxCell id="yTWM4LRYes1PWLr559-A-9" value="" style="shape=partialRectangle;html=1;whiteSpace=wrap;connectable=0;fillColor=none;top=0;left=0;bottom=0;right=0;overflow=hidden;strokeColor=#E07A5F;fontColor=#393C56;" vertex="1" parent="yTWM4LRYes1PWLr559-A-8">
          <mxGeometry width="31" height="20" as="geometry" />
        </mxCell>
        <mxCell id="yTWM4LRYes1PWLr559-A-10" value="Address" style="shape=partialRectangle;html=1;whiteSpace=wrap;connectable=0;fillColor=none;top=0;left=0;bottom=0;right=0;align=left;spacingLeft=6;overflow=hidden;strokeColor=#E07A5F;fontColor=#393C56;" vertex="1" parent="yTWM4LRYes1PWLr559-A-8">
          <mxGeometry x="31" width="109" height="20" as="geometry" />
        </mxCell>
        <mxCell id="yTWM4LRYes1PWLr559-A-27" value="Reg No." style="shape=partialRectangle;html=1;whiteSpace=wrap;connectable=0;fillColor=none;top=0;left=0;bottom=0;right=0;align=left;spacingLeft=6;overflow=hidden;strokeColor=#E07A5F;fontColor=#393C56;" vertex="1" parent="WIyWlLk6GJQsqaUBKTNV-1">
          <mxGeometry x="100" y="290" width="109" height="20" as="geometry" />
        </mxCell>
        <mxCell id="yTWM4LRYes1PWLr559-A-28" value="Sport" style="shape=table;html=1;whiteSpace=wrap;startSize=30;container=1;collapsible=0;childLayout=tableLayout;fixedRows=1;rowLines=0;fontStyle=1;align=center;fillColor=#b0e3e6;strokeColor=#0e8088;" vertex="1" parent="WIyWlLk6GJQsqaUBKTNV-1">
          <mxGeometry x="80" y="410" width="140" height="110" as="geometry" />
        </mxCell>
        <mxCell id="yTWM4LRYes1PWLr559-A-29" value="" style="shape=partialRectangle;html=1;whiteSpace=wrap;collapsible=0;dropTarget=0;pointerEvents=0;fillColor=none;top=0;left=0;bottom=1;right=0;points=[[0,0.5],[1,0.5]];portConstraint=eastwest;strokeColor=#E07A5F;fontColor=#393C56;" vertex="1" parent="yTWM4LRYes1PWLr559-A-28">
          <mxGeometry y="30" width="140" height="20" as="geometry" />
        </mxCell>
        <mxCell id="yTWM4LRYes1PWLr559-A-30" value="Pk" style="shape=partialRectangle;html=1;whiteSpace=wrap;connectable=0;fillColor=none;top=0;left=0;bottom=0;right=0;overflow=hidden;strokeColor=#E07A5F;fontColor=#393C56;" vertex="1" parent="yTWM4LRYes1PWLr559-A-29">
          <mxGeometry width="31" height="20" as="geometry" />
        </mxCell>
        <mxCell id="yTWM4LRYes1PWLr559-A-31" value="SportID" style="shape=partialRectangle;html=1;whiteSpace=wrap;connectable=0;fillColor=none;top=0;left=0;bottom=0;right=0;align=left;spacingLeft=6;overflow=hidden;strokeColor=#E07A5F;fontColor=#393C56;" vertex="1" parent="yTWM4LRYes1PWLr559-A-29">
          <mxGeometry x="31" width="109" height="20" as="geometry" />
        </mxCell>
        <mxCell id="yTWM4LRYes1PWLr559-A-32" value="" style="shape=partialRectangle;html=1;whiteSpace=wrap;collapsible=0;dropTarget=0;pointerEvents=0;fillColor=none;top=0;left=0;bottom=0;right=0;points=[[0,0.5],[1,0.5]];portConstraint=eastwest;strokeColor=#E07A5F;fontColor=#393C56;" vertex="1" parent="yTWM4LRYes1PWLr559-A-28">
          <mxGeometry y="50" width="140" height="20" as="geometry" />
        </mxCell>
        <mxCell id="yTWM4LRYes1PWLr559-A-33" value="" style="shape=partialRectangle;html=1;whiteSpace=wrap;connectable=0;fillColor=none;top=0;left=0;bottom=0;right=0;overflow=hidden;strokeColor=#E07A5F;fontColor=#393C56;" vertex="1" parent="yTWM4LRYes1PWLr559-A-32">
          <mxGeometry width="31" height="20" as="geometry" />
        </mxCell>
        <mxCell id="yTWM4LRYes1PWLr559-A-34" value="Name" style="shape=partialRectangle;html=1;whiteSpace=wrap;connectable=0;fillColor=none;top=0;left=0;bottom=0;right=0;align=left;spacingLeft=6;overflow=hidden;strokeColor=#E07A5F;fontColor=#393C56;" vertex="1" parent="yTWM4LRYes1PWLr559-A-32">
          <mxGeometry x="31" width="109" height="20" as="geometry" />
        </mxCell>
        <mxCell id="yTWM4LRYes1PWLr559-A-35" value="" style="shape=partialRectangle;html=1;whiteSpace=wrap;collapsible=0;dropTarget=0;pointerEvents=0;fillColor=none;top=0;left=0;bottom=0;right=0;points=[[0,0.5],[1,0.5]];portConstraint=eastwest;strokeColor=#E07A5F;fontColor=#393C56;" vertex="1" parent="yTWM4LRYes1PWLr559-A-28">
          <mxGeometry y="70" width="140" height="20" as="geometry" />
        </mxCell>
        <mxCell id="yTWM4LRYes1PWLr559-A-36" value="" style="shape=partialRectangle;html=1;whiteSpace=wrap;connectable=0;fillColor=none;top=0;left=0;bottom=0;right=0;overflow=hidden;strokeColor=#E07A5F;fontColor=#393C56;" vertex="1" parent="yTWM4LRYes1PWLr559-A-35">
          <mxGeometry width="31" height="20" as="geometry" />
        </mxCell>
        <mxCell id="yTWM4LRYes1PWLr559-A-37" value="GroundName" style="shape=partialRectangle;html=1;whiteSpace=wrap;connectable=0;fillColor=none;top=0;left=0;bottom=0;right=0;align=left;spacingLeft=6;overflow=hidden;strokeColor=#E07A5F;fontColor=#393C56;" vertex="1" parent="yTWM4LRYes1PWLr559-A-35">
          <mxGeometry x="31" width="109" height="20" as="geometry" />
        </mxCell>
        <mxCell id="yTWM4LRYes1PWLr559-A-49" value="" style="shape=partialRectangle;html=1;whiteSpace=wrap;collapsible=0;dropTarget=0;pointerEvents=0;fillColor=none;top=0;left=0;bottom=0;right=0;points=[[0,0.5],[1,0.5]];portConstraint=eastwest;strokeColor=#E07A5F;fontColor=#393C56;" vertex="1" parent="WIyWlLk6GJQsqaUBKTNV-1">
          <mxGeometry x="80" y="500" width="140" height="20" as="geometry" />
        </mxCell>
        <mxCell id="yTWM4LRYes1PWLr559-A-51" value="AcademyID" style="shape=partialRectangle;html=1;whiteSpace=wrap;connectable=0;fillColor=none;top=0;left=0;bottom=0;right=0;align=left;spacingLeft=6;overflow=hidden;strokeColor=#E07A5F;fontColor=#393C56;" vertex="1" parent="yTWM4LRYes1PWLr559-A-49">
          <mxGeometry x="31" width="109" height="20" as="geometry" />
        </mxCell>
        <mxCell id="yTWM4LRYes1PWLr559-A-52" value="Fk" style="text;html=1;align=center;verticalAlign=middle;resizable=0;points=[];autosize=1;strokeColor=none;fontColor=#393C56;" vertex="1" parent="WIyWlLk6GJQsqaUBKTNV-1">
          <mxGeometry x="80" y="500" width="30" height="20" as="geometry" />
        </mxCell>
        <mxCell id="yTWM4LRYes1PWLr559-A-53" value="Coach" style="shape=table;html=1;whiteSpace=wrap;startSize=30;container=1;collapsible=0;childLayout=tableLayout;fixedRows=1;rowLines=0;fontStyle=1;align=center;fillColor=#008a00;strokeColor=#005700;fontColor=#ffffff;" vertex="1" parent="WIyWlLk6GJQsqaUBKTNV-1">
          <mxGeometry x="870" y="170" width="140" height="130" as="geometry" />
        </mxCell>
        <mxCell id="yTWM4LRYes1PWLr559-A-54" value="" style="shape=partialRectangle;html=1;whiteSpace=wrap;collapsible=0;dropTarget=0;pointerEvents=0;fillColor=none;top=0;left=0;bottom=1;right=0;points=[[0,0.5],[1,0.5]];portConstraint=eastwest;strokeColor=#E07A5F;fontColor=#393C56;" vertex="1" parent="yTWM4LRYes1PWLr559-A-53">
          <mxGeometry y="30" width="140" height="20" as="geometry" />
        </mxCell>
        <mxCell id="yTWM4LRYes1PWLr559-A-55" value="Pk" style="shape=partialRectangle;html=1;whiteSpace=wrap;connectable=0;fillColor=none;top=0;left=0;bottom=0;right=0;overflow=hidden;strokeColor=#E07A5F;fontColor=#393C56;" vertex="1" parent="yTWM4LRYes1PWLr559-A-54">
          <mxGeometry width="31" height="20" as="geometry" />
        </mxCell>
        <mxCell id="yTWM4LRYes1PWLr559-A-56" value="CoachID" style="shape=partialRectangle;html=1;whiteSpace=wrap;connectable=0;fillColor=none;top=0;left=0;bottom=0;right=0;align=left;spacingLeft=6;overflow=hidden;strokeColor=#E07A5F;fontColor=#393C56;" vertex="1" parent="yTWM4LRYes1PWLr559-A-54">
          <mxGeometry x="31" width="109" height="20" as="geometry" />
        </mxCell>
        <mxCell id="yTWM4LRYes1PWLr559-A-57" value="" style="shape=partialRectangle;html=1;whiteSpace=wrap;collapsible=0;dropTarget=0;pointerEvents=0;fillColor=none;top=0;left=0;bottom=0;right=0;points=[[0,0.5],[1,0.5]];portConstraint=eastwest;strokeColor=#E07A5F;fontColor=#393C56;" vertex="1" parent="yTWM4LRYes1PWLr559-A-53">
          <mxGeometry y="50" width="140" height="20" as="geometry" />
        </mxCell>
        <mxCell id="yTWM4LRYes1PWLr559-A-58" value="" style="shape=partialRectangle;html=1;whiteSpace=wrap;connectable=0;fillColor=none;top=0;left=0;bottom=0;right=0;overflow=hidden;strokeColor=#E07A5F;fontColor=#393C56;" vertex="1" parent="yTWM4LRYes1PWLr559-A-57">
          <mxGeometry width="31" height="20" as="geometry" />
        </mxCell>
        <mxCell id="yTWM4LRYes1PWLr559-A-59" value="Name" style="shape=partialRectangle;html=1;whiteSpace=wrap;connectable=0;fillColor=none;top=0;left=0;bottom=0;right=0;align=left;spacingLeft=6;overflow=hidden;strokeColor=#E07A5F;fontColor=#393C56;" vertex="1" parent="yTWM4LRYes1PWLr559-A-57">
          <mxGeometry x="31" width="109" height="20" as="geometry" />
        </mxCell>
        <mxCell id="yTWM4LRYes1PWLr559-A-60" value="" style="shape=partialRectangle;html=1;whiteSpace=wrap;collapsible=0;dropTarget=0;pointerEvents=0;fillColor=none;top=0;left=0;bottom=0;right=0;points=[[0,0.5],[1,0.5]];portConstraint=eastwest;strokeColor=#E07A5F;fontColor=#393C56;" vertex="1" parent="yTWM4LRYes1PWLr559-A-53">
          <mxGeometry y="70" width="140" height="20" as="geometry" />
        </mxCell>
        <mxCell id="yTWM4LRYes1PWLr559-A-61" value="" style="shape=partialRectangle;html=1;whiteSpace=wrap;connectable=0;fillColor=none;top=0;left=0;bottom=0;right=0;overflow=hidden;strokeColor=#E07A5F;fontColor=#393C56;" vertex="1" parent="yTWM4LRYes1PWLr559-A-60">
          <mxGeometry width="31" height="20" as="geometry" />
        </mxCell>
        <mxCell id="yTWM4LRYes1PWLr559-A-62" value="ContactNo" style="shape=partialRectangle;html=1;whiteSpace=wrap;connectable=0;fillColor=none;top=0;left=0;bottom=0;right=0;align=left;spacingLeft=6;overflow=hidden;strokeColor=#E07A5F;fontColor=#393C56;" vertex="1" parent="yTWM4LRYes1PWLr559-A-60">
          <mxGeometry x="31" width="109" height="20" as="geometry" />
        </mxCell>
        <mxCell id="yTWM4LRYes1PWLr559-A-63" value="SportID" style="shape=partialRectangle;html=1;whiteSpace=wrap;connectable=0;fillColor=none;top=0;left=0;bottom=0;right=0;align=left;spacingLeft=6;overflow=hidden;strokeColor=#E07A5F;fontColor=#393C56;" vertex="1" parent="WIyWlLk6GJQsqaUBKTNV-1">
          <mxGeometry x="900" y="260" width="110" height="20" as="geometry" />
        </mxCell>
        <mxCell id="yTWM4LRYes1PWLr559-A-64" value="AcademyID" style="shape=partialRectangle;html=1;whiteSpace=wrap;connectable=0;fillColor=none;top=0;left=0;bottom=0;right=0;align=left;spacingLeft=6;overflow=hidden;strokeColor=#E07A5F;fontColor=#393C56;" vertex="1" parent="WIyWlLk6GJQsqaUBKTNV-1">
          <mxGeometry x="901" y="280" width="109" height="20" as="geometry" />
        </mxCell>
        <mxCell id="yTWM4LRYes1PWLr559-A-65" value="FK" style="text;html=1;align=center;verticalAlign=middle;resizable=0;points=[];autosize=1;strokeColor=none;fontColor=#393C56;" vertex="1" parent="WIyWlLk6GJQsqaUBKTNV-1">
          <mxGeometry x="870" y="260" width="30" height="20" as="geometry" />
        </mxCell>
        <mxCell id="yTWM4LRYes1PWLr559-A-68" value="Team" style="shape=table;html=1;whiteSpace=wrap;startSize=30;container=1;collapsible=0;childLayout=tableLayout;fixedRows=1;rowLines=0;fontStyle=1;align=center;fillColor=#e3c800;strokeColor=#B09500;fontColor=#ffffff;" vertex="1" parent="WIyWlLk6GJQsqaUBKTNV-1">
          <mxGeometry x="885" y="400" width="140" height="160" as="geometry" />
        </mxCell>
        <mxCell id="yTWM4LRYes1PWLr559-A-69" value="" style="shape=partialRectangle;html=1;whiteSpace=wrap;collapsible=0;dropTarget=0;pointerEvents=0;fillColor=none;top=0;left=0;bottom=1;right=0;points=[[0,0.5],[1,0.5]];portConstraint=eastwest;strokeColor=#E07A5F;fontColor=#393C56;" vertex="1" parent="yTWM4LRYes1PWLr559-A-68">
          <mxGeometry y="30" width="140" height="20" as="geometry" />
        </mxCell>
        <mxCell id="yTWM4LRYes1PWLr559-A-70" value="PK" style="shape=partialRectangle;html=1;whiteSpace=wrap;connectable=0;fillColor=none;top=0;left=0;bottom=0;right=0;overflow=hidden;strokeColor=#E07A5F;fontColor=#393C56;" vertex="1" parent="yTWM4LRYes1PWLr559-A-69">
          <mxGeometry width="31" height="20" as="geometry" />
        </mxCell>
        <mxCell id="yTWM4LRYes1PWLr559-A-71" value="TeamID" style="shape=partialRectangle;html=1;whiteSpace=wrap;connectable=0;fillColor=none;top=0;left=0;bottom=0;right=0;align=left;spacingLeft=6;overflow=hidden;strokeColor=#E07A5F;fontColor=#393C56;" vertex="1" parent="yTWM4LRYes1PWLr559-A-69">
          <mxGeometry x="31" width="109" height="20" as="geometry" />
        </mxCell>
        <mxCell id="yTWM4LRYes1PWLr559-A-72" value="" style="shape=partialRectangle;html=1;whiteSpace=wrap;collapsible=0;dropTarget=0;pointerEvents=0;fillColor=none;top=0;left=0;bottom=0;right=0;points=[[0,0.5],[1,0.5]];portConstraint=eastwest;strokeColor=#E07A5F;fontColor=#393C56;" vertex="1" parent="yTWM4LRYes1PWLr559-A-68">
          <mxGeometry y="50" width="140" height="20" as="geometry" />
        </mxCell>
        <mxCell id="yTWM4LRYes1PWLr559-A-73" value="FK" style="shape=partialRectangle;html=1;whiteSpace=wrap;connectable=0;fillColor=none;top=0;left=0;bottom=0;right=0;overflow=hidden;strokeColor=#E07A5F;fontColor=#393C56;" vertex="1" parent="yTWM4LRYes1PWLr559-A-72">
          <mxGeometry width="31" height="20" as="geometry" />
        </mxCell>
        <mxCell id="yTWM4LRYes1PWLr559-A-74" value="SportID" style="shape=partialRectangle;html=1;whiteSpace=wrap;connectable=0;fillColor=none;top=0;left=0;bottom=0;right=0;align=left;spacingLeft=6;overflow=hidden;strokeColor=#E07A5F;fontColor=#393C56;" vertex="1" parent="yTWM4LRYes1PWLr559-A-72">
          <mxGeometry x="31" width="109" height="20" as="geometry" />
        </mxCell>
        <mxCell id="yTWM4LRYes1PWLr559-A-75" value="" style="shape=partialRectangle;html=1;whiteSpace=wrap;collapsible=0;dropTarget=0;pointerEvents=0;fillColor=none;top=0;left=0;bottom=0;right=0;points=[[0,0.5],[1,0.5]];portConstraint=eastwest;strokeColor=#E07A5F;fontColor=#393C56;" vertex="1" parent="yTWM4LRYes1PWLr559-A-68">
          <mxGeometry y="70" width="140" height="20" as="geometry" />
        </mxCell>
        <mxCell id="yTWM4LRYes1PWLr559-A-76" value="" style="shape=partialRectangle;html=1;whiteSpace=wrap;connectable=0;fillColor=none;top=0;left=0;bottom=0;right=0;overflow=hidden;strokeColor=#E07A5F;fontColor=#393C56;" vertex="1" parent="yTWM4LRYes1PWLr559-A-75">
          <mxGeometry width="31" height="20" as="geometry" />
        </mxCell>
        <mxCell id="yTWM4LRYes1PWLr559-A-77" value="Captain" style="shape=partialRectangle;html=1;whiteSpace=wrap;connectable=0;fillColor=none;top=0;left=0;bottom=0;right=0;align=left;spacingLeft=6;overflow=hidden;strokeColor=#E07A5F;fontColor=#393C56;" vertex="1" parent="yTWM4LRYes1PWLr559-A-75">
          <mxGeometry x="31" width="109" height="20" as="geometry" />
        </mxCell>
        <mxCell id="yTWM4LRYes1PWLr559-A-128" value="" style="shape=partialRectangle;html=1;whiteSpace=wrap;collapsible=0;dropTarget=0;pointerEvents=0;fillColor=none;top=0;left=0;bottom=0;right=0;points=[[0,0.5],[1,0.5]];portConstraint=eastwest;strokeColor=#E07A5F;fontColor=#393C56;" vertex="1" parent="yTWM4LRYes1PWLr559-A-68">
          <mxGeometry y="90" width="140" height="20" as="geometry" />
        </mxCell>
        <mxCell id="yTWM4LRYes1PWLr559-A-129" value="FK" style="shape=partialRectangle;html=1;whiteSpace=wrap;connectable=0;fillColor=none;top=0;left=0;bottom=0;right=0;overflow=hidden;strokeColor=#E07A5F;fontColor=#393C56;" vertex="1" parent="yTWM4LRYes1PWLr559-A-128">
          <mxGeometry width="31" height="20" as="geometry" />
        </mxCell>
        <mxCell id="yTWM4LRYes1PWLr559-A-130" value="AcademyID" style="shape=partialRectangle;html=1;whiteSpace=wrap;connectable=0;fillColor=none;top=0;left=0;bottom=0;right=0;align=left;spacingLeft=6;overflow=hidden;strokeColor=#E07A5F;fontColor=#393C56;" vertex="1" parent="yTWM4LRYes1PWLr559-A-128">
          <mxGeometry x="31" width="109" height="20" as="geometry" />
        </mxCell>
        <mxCell id="yTWM4LRYes1PWLr559-A-178" value="" style="shape=partialRectangle;html=1;whiteSpace=wrap;collapsible=0;dropTarget=0;pointerEvents=0;fillColor=none;top=0;left=0;bottom=0;right=0;points=[[0,0.5],[1,0.5]];portConstraint=eastwest;strokeColor=#E07A5F;fontColor=#393C56;" vertex="1" parent="yTWM4LRYes1PWLr559-A-68">
          <mxGeometry y="110" width="140" height="20" as="geometry" />
        </mxCell>
        <mxCell id="yTWM4LRYes1PWLr559-A-179" value="FK" style="shape=partialRectangle;html=1;whiteSpace=wrap;connectable=0;fillColor=none;top=0;left=0;bottom=0;right=0;overflow=hidden;strokeColor=#E07A5F;fontColor=#393C56;" vertex="1" parent="yTWM4LRYes1PWLr559-A-178">
          <mxGeometry width="31" height="20" as="geometry" />
        </mxCell>
        <mxCell id="yTWM4LRYes1PWLr559-A-180" value="CoachId" style="shape=partialRectangle;html=1;whiteSpace=wrap;connectable=0;fillColor=none;top=0;left=0;bottom=0;right=0;align=left;spacingLeft=6;overflow=hidden;strokeColor=#E07A5F;fontColor=#393C56;" vertex="1" parent="yTWM4LRYes1PWLr559-A-178">
          <mxGeometry x="31" width="109" height="20" as="geometry" />
        </mxCell>
        <mxCell id="yTWM4LRYes1PWLr559-A-92" value="Batch" style="shape=table;html=1;whiteSpace=wrap;startSize=30;container=1;collapsible=0;childLayout=tableLayout;fixedRows=1;rowLines=0;fontStyle=1;align=center;fillColor=#d80073;strokeColor=#A50040;fontColor=#ffffff;" vertex="1" parent="WIyWlLk6GJQsqaUBKTNV-1">
          <mxGeometry x="90" y="620" width="140" height="150" as="geometry" />
        </mxCell>
        <mxCell id="yTWM4LRYes1PWLr559-A-93" value="" style="shape=partialRectangle;html=1;whiteSpace=wrap;collapsible=0;dropTarget=0;pointerEvents=0;fillColor=none;top=0;left=0;bottom=1;right=0;points=[[0,0.5],[1,0.5]];portConstraint=eastwest;strokeColor=#E07A5F;fontColor=#393C56;" vertex="1" parent="yTWM4LRYes1PWLr559-A-92">
          <mxGeometry y="30" width="140" height="20" as="geometry" />
        </mxCell>
        <mxCell id="yTWM4LRYes1PWLr559-A-94" value="PK" style="shape=partialRectangle;html=1;whiteSpace=wrap;connectable=0;fillColor=none;top=0;left=0;bottom=0;right=0;overflow=hidden;strokeColor=#E07A5F;fontColor=#393C56;" vertex="1" parent="yTWM4LRYes1PWLr559-A-93">
          <mxGeometry width="31" height="20" as="geometry" />
        </mxCell>
        <mxCell id="yTWM4LRYes1PWLr559-A-95" value="BatchID" style="shape=partialRectangle;html=1;whiteSpace=wrap;connectable=0;fillColor=none;top=0;left=0;bottom=0;right=0;align=left;spacingLeft=6;overflow=hidden;strokeColor=#E07A5F;fontColor=#393C56;" vertex="1" parent="yTWM4LRYes1PWLr559-A-93">
          <mxGeometry x="31" width="109" height="20" as="geometry" />
        </mxCell>
        <mxCell id="yTWM4LRYes1PWLr559-A-96" value="" style="shape=partialRectangle;html=1;whiteSpace=wrap;collapsible=0;dropTarget=0;pointerEvents=0;fillColor=none;top=0;left=0;bottom=0;right=0;points=[[0,0.5],[1,0.5]];portConstraint=eastwest;strokeColor=#E07A5F;fontColor=#393C56;" vertex="1" parent="yTWM4LRYes1PWLr559-A-92">
          <mxGeometry y="50" width="140" height="20" as="geometry" />
        </mxCell>
        <mxCell id="yTWM4LRYes1PWLr559-A-97" value="FK" style="shape=partialRectangle;html=1;whiteSpace=wrap;connectable=0;fillColor=none;top=0;left=0;bottom=0;right=0;overflow=hidden;strokeColor=#E07A5F;fontColor=#393C56;" vertex="1" parent="yTWM4LRYes1PWLr559-A-96">
          <mxGeometry width="31" height="20" as="geometry" />
        </mxCell>
        <mxCell id="yTWM4LRYes1PWLr559-A-98" value="SportID" style="shape=partialRectangle;html=1;whiteSpace=wrap;connectable=0;fillColor=none;top=0;left=0;bottom=0;right=0;align=left;spacingLeft=6;overflow=hidden;strokeColor=#E07A5F;fontColor=#393C56;" vertex="1" parent="yTWM4LRYes1PWLr559-A-96">
          <mxGeometry x="31" width="109" height="20" as="geometry" />
        </mxCell>
        <mxCell id="yTWM4LRYes1PWLr559-A-99" value="" style="shape=partialRectangle;html=1;whiteSpace=wrap;collapsible=0;dropTarget=0;pointerEvents=0;fillColor=none;top=0;left=0;bottom=0;right=0;points=[[0,0.5],[1,0.5]];portConstraint=eastwest;strokeColor=#E07A5F;fontColor=#393C56;" vertex="1" parent="yTWM4LRYes1PWLr559-A-92">
          <mxGeometry y="70" width="140" height="20" as="geometry" />
        </mxCell>
        <mxCell id="yTWM4LRYes1PWLr559-A-100" value="FK" style="shape=partialRectangle;html=1;whiteSpace=wrap;connectable=0;fillColor=none;top=0;left=0;bottom=0;right=0;overflow=hidden;strokeColor=#E07A5F;fontColor=#393C56;" vertex="1" parent="yTWM4LRYes1PWLr559-A-99">
          <mxGeometry width="31" height="20" as="geometry" />
        </mxCell>
        <mxCell id="yTWM4LRYes1PWLr559-A-101" value="CoachID" style="shape=partialRectangle;html=1;whiteSpace=wrap;connectable=0;fillColor=none;top=0;left=0;bottom=0;right=0;align=left;spacingLeft=6;overflow=hidden;strokeColor=#E07A5F;fontColor=#393C56;" vertex="1" parent="yTWM4LRYes1PWLr559-A-99">
          <mxGeometry x="31" width="109" height="20" as="geometry" />
        </mxCell>
        <mxCell id="yTWM4LRYes1PWLr559-A-171" value="" style="shape=partialRectangle;html=1;whiteSpace=wrap;collapsible=0;dropTarget=0;pointerEvents=0;fillColor=none;top=0;left=0;bottom=0;right=0;points=[[0,0.5],[1,0.5]];portConstraint=eastwest;strokeColor=#E07A5F;fontColor=#393C56;" vertex="1" parent="yTWM4LRYes1PWLr559-A-92">
          <mxGeometry y="90" width="140" height="20" as="geometry" />
        </mxCell>
        <mxCell id="yTWM4LRYes1PWLr559-A-172" value="FK" style="shape=partialRectangle;html=1;whiteSpace=wrap;connectable=0;fillColor=none;top=0;left=0;bottom=0;right=0;overflow=hidden;strokeColor=#E07A5F;fontColor=#393C56;" vertex="1" parent="yTWM4LRYes1PWLr559-A-171">
          <mxGeometry width="31" height="20" as="geometry" />
        </mxCell>
        <mxCell id="yTWM4LRYes1PWLr559-A-173" value="AcademyID" style="shape=partialRectangle;html=1;whiteSpace=wrap;connectable=0;fillColor=none;top=0;left=0;bottom=0;right=0;align=left;spacingLeft=6;overflow=hidden;strokeColor=#E07A5F;fontColor=#393C56;" vertex="1" parent="yTWM4LRYes1PWLr559-A-171">
          <mxGeometry x="31" width="109" height="20" as="geometry" />
        </mxCell>
        <mxCell id="yTWM4LRYes1PWLr559-A-103" value="" style="shape=partialRectangle;html=1;whiteSpace=wrap;collapsible=0;dropTarget=0;pointerEvents=0;fillColor=none;top=0;left=0;bottom=0;right=0;points=[[0,0.5],[1,0.5]];portConstraint=eastwest;strokeColor=#E07A5F;fontColor=#393C56;" vertex="1" parent="WIyWlLk6GJQsqaUBKTNV-1">
          <mxGeometry x="90" y="730" width="140" height="20" as="geometry" />
        </mxCell>
        <mxCell id="yTWM4LRYes1PWLr559-A-105" value="NoOfPlayer" style="shape=partialRectangle;html=1;whiteSpace=wrap;connectable=0;fillColor=none;top=0;left=0;bottom=0;right=0;align=left;spacingLeft=6;overflow=hidden;strokeColor=#E07A5F;fontColor=#393C56;" vertex="1" parent="yTWM4LRYes1PWLr559-A-103">
          <mxGeometry x="30" width="110" height="20" as="geometry" />
        </mxCell>
        <mxCell id="yTWM4LRYes1PWLr559-A-106" value="Player" style="shape=table;html=1;whiteSpace=wrap;startSize=30;container=1;collapsible=0;childLayout=tableLayout;fixedRows=1;rowLines=0;fontStyle=1;align=center;fillColor=#ffcc99;strokeColor=#36393d;" vertex="1" parent="WIyWlLk6GJQsqaUBKTNV-1">
          <mxGeometry x="885" y="620" width="140" height="190" as="geometry" />
        </mxCell>
        <mxCell id="yTWM4LRYes1PWLr559-A-107" value="" style="shape=partialRectangle;html=1;whiteSpace=wrap;collapsible=0;dropTarget=0;pointerEvents=0;fillColor=none;top=0;left=0;bottom=1;right=0;points=[[0,0.5],[1,0.5]];portConstraint=eastwest;strokeColor=#E07A5F;fontColor=#393C56;" vertex="1" parent="yTWM4LRYes1PWLr559-A-106">
          <mxGeometry y="30" width="140" height="20" as="geometry" />
        </mxCell>
        <mxCell id="yTWM4LRYes1PWLr559-A-108" value="PK" style="shape=partialRectangle;html=1;whiteSpace=wrap;connectable=0;fillColor=none;top=0;left=0;bottom=0;right=0;overflow=hidden;strokeColor=#E07A5F;fontColor=#393C56;" vertex="1" parent="yTWM4LRYes1PWLr559-A-107">
          <mxGeometry width="31" height="20" as="geometry" />
        </mxCell>
        <mxCell id="yTWM4LRYes1PWLr559-A-109" value="PlayerID" style="shape=partialRectangle;html=1;whiteSpace=wrap;connectable=0;fillColor=none;top=0;left=0;bottom=0;right=0;align=left;spacingLeft=6;overflow=hidden;strokeColor=#E07A5F;fontColor=#393C56;" vertex="1" parent="yTWM4LRYes1PWLr559-A-107">
          <mxGeometry x="31" width="109" height="20" as="geometry" />
        </mxCell>
        <mxCell id="yTWM4LRYes1PWLr559-A-110" value="" style="shape=partialRectangle;html=1;whiteSpace=wrap;collapsible=0;dropTarget=0;pointerEvents=0;fillColor=none;top=0;left=0;bottom=0;right=0;points=[[0,0.5],[1,0.5]];portConstraint=eastwest;strokeColor=#E07A5F;fontColor=#393C56;" vertex="1" parent="yTWM4LRYes1PWLr559-A-106">
          <mxGeometry y="50" width="140" height="20" as="geometry" />
        </mxCell>
        <mxCell id="yTWM4LRYes1PWLr559-A-111" value="FK" style="shape=partialRectangle;html=1;whiteSpace=wrap;connectable=0;fillColor=none;top=0;left=0;bottom=0;right=0;overflow=hidden;strokeColor=#E07A5F;fontColor=#393C56;" vertex="1" parent="yTWM4LRYes1PWLr559-A-110">
          <mxGeometry width="31" height="20" as="geometry" />
        </mxCell>
        <mxCell id="yTWM4LRYes1PWLr559-A-112" value="SportID" style="shape=partialRectangle;html=1;whiteSpace=wrap;connectable=0;fillColor=none;top=0;left=0;bottom=0;right=0;align=left;spacingLeft=6;overflow=hidden;strokeColor=#E07A5F;fontColor=#393C56;" vertex="1" parent="yTWM4LRYes1PWLr559-A-110">
          <mxGeometry x="31" width="109" height="20" as="geometry" />
        </mxCell>
        <mxCell id="yTWM4LRYes1PWLr559-A-113" value="" style="shape=partialRectangle;html=1;whiteSpace=wrap;collapsible=0;dropTarget=0;pointerEvents=0;fillColor=none;top=0;left=0;bottom=0;right=0;points=[[0,0.5],[1,0.5]];portConstraint=eastwest;strokeColor=#E07A5F;fontColor=#393C56;" vertex="1" parent="yTWM4LRYes1PWLr559-A-106">
          <mxGeometry y="70" width="140" height="20" as="geometry" />
        </mxCell>
        <mxCell id="yTWM4LRYes1PWLr559-A-114" value="FK" style="shape=partialRectangle;html=1;whiteSpace=wrap;connectable=0;fillColor=none;top=0;left=0;bottom=0;right=0;overflow=hidden;strokeColor=#E07A5F;fontColor=#393C56;" vertex="1" parent="yTWM4LRYes1PWLr559-A-113">
          <mxGeometry width="31" height="20" as="geometry" />
        </mxCell>
        <mxCell id="yTWM4LRYes1PWLr559-A-115" value="BatchID" style="shape=partialRectangle;html=1;whiteSpace=wrap;connectable=0;fillColor=none;top=0;left=0;bottom=0;right=0;align=left;spacingLeft=6;overflow=hidden;strokeColor=#E07A5F;fontColor=#393C56;" vertex="1" parent="yTWM4LRYes1PWLr559-A-113">
          <mxGeometry x="31" width="109" height="20" as="geometry" />
        </mxCell>
        <mxCell id="yTWM4LRYes1PWLr559-A-158" value="" style="shape=partialRectangle;html=1;whiteSpace=wrap;collapsible=0;dropTarget=0;pointerEvents=0;fillColor=none;top=0;left=0;bottom=0;right=0;points=[[0,0.5],[1,0.5]];portConstraint=eastwest;strokeColor=#E07A5F;fontColor=#393C56;" vertex="1" parent="yTWM4LRYes1PWLr559-A-106">
          <mxGeometry y="90" width="140" height="20" as="geometry" />
        </mxCell>
        <mxCell id="yTWM4LRYes1PWLr559-A-159" value="FK" style="shape=partialRectangle;html=1;whiteSpace=wrap;connectable=0;fillColor=none;top=0;left=0;bottom=0;right=0;overflow=hidden;strokeColor=#E07A5F;fontColor=#393C56;" vertex="1" parent="yTWM4LRYes1PWLr559-A-158">
          <mxGeometry width="31" height="20" as="geometry" />
        </mxCell>
        <mxCell id="yTWM4LRYes1PWLr559-A-160" value="AcademyID" style="shape=partialRectangle;html=1;whiteSpace=wrap;connectable=0;fillColor=none;top=0;left=0;bottom=0;right=0;align=left;spacingLeft=6;overflow=hidden;strokeColor=#E07A5F;fontColor=#393C56;" vertex="1" parent="yTWM4LRYes1PWLr559-A-158">
          <mxGeometry x="31" width="109" height="20" as="geometry" />
        </mxCell>
        <mxCell id="yTWM4LRYes1PWLr559-A-116" value="" style="shape=partialRectangle;html=1;whiteSpace=wrap;collapsible=0;dropTarget=0;pointerEvents=0;fillColor=none;top=0;left=0;bottom=0;right=0;points=[[0,0.5],[1,0.5]];portConstraint=eastwest;strokeColor=#E07A5F;fontColor=#393C56;" vertex="1" parent="WIyWlLk6GJQsqaUBKTNV-1">
          <mxGeometry x="890" y="730" width="140" height="20" as="geometry" />
        </mxCell>
        <mxCell id="yTWM4LRYes1PWLr559-A-117" value="Name" style="shape=partialRectangle;html=1;whiteSpace=wrap;connectable=0;fillColor=none;top=0;left=0;bottom=0;right=0;align=left;spacingLeft=6;overflow=hidden;strokeColor=#E07A5F;fontColor=#393C56;" vertex="1" parent="yTWM4LRYes1PWLr559-A-116">
          <mxGeometry x="30" width="110" height="20" as="geometry" />
        </mxCell>
        <mxCell id="yTWM4LRYes1PWLr559-A-118" value="" style="shape=partialRectangle;html=1;whiteSpace=wrap;collapsible=0;dropTarget=0;pointerEvents=0;fillColor=none;top=0;left=0;bottom=0;right=0;points=[[0,0.5],[1,0.5]];portConstraint=eastwest;strokeColor=#E07A5F;fontColor=#393C56;" vertex="1" parent="WIyWlLk6GJQsqaUBKTNV-1">
          <mxGeometry x="890" y="760" width="140" height="20" as="geometry" />
        </mxCell>
        <mxCell id="yTWM4LRYes1PWLr559-A-120" value="" style="shape=partialRectangle;html=1;whiteSpace=wrap;collapsible=0;dropTarget=0;pointerEvents=0;fillColor=none;top=0;left=0;bottom=0;right=0;points=[[0,0.5],[1,0.5]];portConstraint=eastwest;strokeColor=#E07A5F;fontColor=#393C56;" vertex="1" parent="WIyWlLk6GJQsqaUBKTNV-1">
          <mxGeometry x="890" y="770" width="140" height="20" as="geometry" />
        </mxCell>
        <mxCell id="yTWM4LRYes1PWLr559-A-121" value="InTeam" style="shape=partialRectangle;html=1;whiteSpace=wrap;connectable=0;fillColor=none;top=0;left=0;bottom=0;right=0;align=left;spacingLeft=6;overflow=hidden;strokeColor=#E07A5F;fontColor=#393C56;" vertex="1" parent="yTWM4LRYes1PWLr559-A-120">
          <mxGeometry x="30" width="110" height="20" as="geometry" />
        </mxCell>
        <mxCell id="yTWM4LRYes1PWLr559-A-123" value="" style="shape=partialRectangle;html=1;whiteSpace=wrap;collapsible=0;dropTarget=0;pointerEvents=0;fillColor=none;top=0;left=0;bottom=0;right=0;points=[[0,0.5],[1,0.5]];portConstraint=eastwest;strokeColor=#E07A5F;fontColor=#393C56;" vertex="1" parent="WIyWlLk6GJQsqaUBKTNV-1">
          <mxGeometry x="885" y="790" width="140" height="20" as="geometry" />
        </mxCell>
        <mxCell id="yTWM4LRYes1PWLr559-A-124" value="TeamID" style="shape=partialRectangle;html=1;whiteSpace=wrap;connectable=0;fillColor=none;top=0;left=0;bottom=0;right=0;align=left;spacingLeft=6;overflow=hidden;strokeColor=#E07A5F;fontColor=#393C56;" vertex="1" parent="yTWM4LRYes1PWLr559-A-123">
          <mxGeometry x="30" width="110" height="20" as="geometry" />
        </mxCell>
        <mxCell id="yTWM4LRYes1PWLr559-A-126" value="FK" style="text;html=1;align=center;verticalAlign=middle;resizable=0;points=[];autosize=1;strokeColor=none;fontColor=#393C56;" vertex="1" parent="WIyWlLk6GJQsqaUBKTNV-1">
          <mxGeometry x="885" y="790" width="30" height="20" as="geometry" />
        </mxCell>
        <mxCell id="yTWM4LRYes1PWLr559-A-119" value="Age" style="shape=partialRectangle;html=1;whiteSpace=wrap;connectable=0;fillColor=none;top=0;left=0;bottom=0;right=0;align=left;spacingLeft=6;overflow=hidden;strokeColor=#E07A5F;fontColor=#393C56;" vertex="1" parent="WIyWlLk6GJQsqaUBKTNV-1">
          <mxGeometry x="921" y="750" width="110" height="20" as="geometry" />
        </mxCell>
        <mxCell id="yTWM4LRYes1PWLr559-A-161" value="" style="endArrow=classic;html=1;exitX=1;exitY=0.5;exitDx=0;exitDy=0;entryX=0;entryY=0.5;entryDx=0;entryDy=0;strokeColor=#b46504;fontColor=#393C56;labelBackgroundColor=#F4F1DE;fillColor=#fad7ac;strokeWidth=3;" edge="1" parent="WIyWlLk6GJQsqaUBKTNV-1" source="yTWM4LRYes1PWLr559-A-2" target="yTWM4LRYes1PWLr559-A-158">
          <mxGeometry width="50" height="50" relative="1" as="geometry">
            <mxPoint x="480" y="420" as="sourcePoint" />
            <mxPoint x="530" y="370" as="targetPoint" />
            <Array as="points">
              <mxPoint x="560" y="240" />
              <mxPoint x="560" y="720" />
            </Array>
          </mxGeometry>
        </mxCell>
        <mxCell id="yTWM4LRYes1PWLr559-A-165" value="FK" style="text;html=1;align=center;verticalAlign=middle;resizable=0;points=[];autosize=1;strokeColor=none;fontColor=#393C56;" vertex="1" parent="WIyWlLk6GJQsqaUBKTNV-1">
          <mxGeometry x="870" y="280" width="30" height="20" as="geometry" />
        </mxCell>
        <mxCell id="yTWM4LRYes1PWLr559-A-166" value="" style="endArrow=classic;html=1;entryX=-0.022;entryY=0.67;entryDx=0;entryDy=0;entryPerimeter=0;strokeColor=#b46504;fontColor=#393C56;labelBackgroundColor=#F4F1DE;fillColor=#fad7ac;startArrow=none;strokeWidth=3;" edge="1" parent="WIyWlLk6GJQsqaUBKTNV-1" source="yTWM4LRYes1PWLr559-A-194" target="yTWM4LRYes1PWLr559-A-165">
          <mxGeometry width="50" height="50" relative="1" as="geometry">
            <mxPoint x="560" y="293" as="sourcePoint" />
            <mxPoint x="530" y="370" as="targetPoint" />
          </mxGeometry>
        </mxCell>
        <mxCell id="yTWM4LRYes1PWLr559-A-167" value="" style="endArrow=classic;html=1;entryX=1;entryY=0.5;entryDx=0;entryDy=0;strokeColor=#b46504;fontColor=#393C56;labelBackgroundColor=#F4F1DE;fillColor=#fad7ac;startArrow=none;strokeWidth=3;" edge="1" parent="WIyWlLk6GJQsqaUBKTNV-1" source="yTWM4LRYes1PWLr559-A-196" target="yTWM4LRYes1PWLr559-A-49">
          <mxGeometry width="50" height="50" relative="1" as="geometry">
            <mxPoint x="560" y="510" as="sourcePoint" />
            <mxPoint x="530" y="370" as="targetPoint" />
          </mxGeometry>
        </mxCell>
        <mxCell id="yTWM4LRYes1PWLr559-A-168" value="" style="endArrow=classic;html=1;entryX=0;entryY=0.5;entryDx=0;entryDy=0;strokeColor=#b46504;fontColor=#393C56;labelBackgroundColor=#F4F1DE;fillColor=#fad7ac;strokeWidth=3;" edge="1" parent="WIyWlLk6GJQsqaUBKTNV-1" target="yTWM4LRYes1PWLr559-A-128">
          <mxGeometry width="50" height="50" relative="1" as="geometry">
            <mxPoint x="560" y="500" as="sourcePoint" />
            <mxPoint x="690" y="420" as="targetPoint" />
          </mxGeometry>
        </mxCell>
        <mxCell id="yTWM4LRYes1PWLr559-A-169" value="" style="endArrow=classic;html=1;entryX=1;entryY=0.5;entryDx=0;entryDy=0;strokeColor=#b46504;fontColor=#393C56;labelBackgroundColor=#F4F1DE;fillColor=#fad7ac;startArrow=none;strokeWidth=3;" edge="1" parent="WIyWlLk6GJQsqaUBKTNV-1" source="yTWM4LRYes1PWLr559-A-191" target="yTWM4LRYes1PWLr559-A-171">
          <mxGeometry width="50" height="50" relative="1" as="geometry">
            <mxPoint x="570" y="720" as="sourcePoint" />
            <mxPoint x="310" y="800" as="targetPoint" />
            <Array as="points" />
          </mxGeometry>
        </mxCell>
        <mxCell id="yTWM4LRYes1PWLr559-A-174" style="edgeStyle=none;rounded=0;orthogonalLoop=1;jettySize=auto;html=1;exitX=1;exitY=0.5;exitDx=0;exitDy=0;entryX=-0.164;entryY=0.497;entryDx=0;entryDy=0;entryPerimeter=0;fillColor=#b1ddf0;strokeColor=#10739e;fontColor=#393C56;labelBackgroundColor=#F4F1DE;shadow=0;sketch=0;strokeWidth=3;" edge="1" parent="WIyWlLk6GJQsqaUBKTNV-1" source="yTWM4LRYes1PWLr559-A-29" target="yTWM4LRYes1PWLr559-A-65">
          <mxGeometry relative="1" as="geometry">
            <Array as="points">
              <mxPoint x="360" y="450" />
              <mxPoint x="360" y="270" />
            </Array>
          </mxGeometry>
        </mxCell>
        <mxCell id="yTWM4LRYes1PWLr559-A-175" value="" style="endArrow=classic;html=1;entryX=0;entryY=0.5;entryDx=0;entryDy=0;fillColor=#b1ddf0;strokeColor=#10739e;fontColor=#393C56;labelBackgroundColor=#F4F1DE;strokeWidth=3;" edge="1" parent="WIyWlLk6GJQsqaUBKTNV-1" target="yTWM4LRYes1PWLr559-A-72">
          <mxGeometry width="50" height="50" relative="1" as="geometry">
            <mxPoint x="360" y="450" as="sourcePoint" />
            <mxPoint x="530" y="520" as="targetPoint" />
            <Array as="points">
              <mxPoint x="490" y="450" />
              <mxPoint x="600" y="450" />
              <mxPoint x="620" y="460" />
            </Array>
          </mxGeometry>
        </mxCell>
        <mxCell id="yTWM4LRYes1PWLr559-A-176" value="" style="endArrow=classic;html=1;fontColor=#393C56;strokeColor=#10739e;fillColor=#b1ddf0;entryX=1;entryY=0.5;entryDx=0;entryDy=0;startArrow=none;strokeWidth=3;" edge="1" parent="WIyWlLk6GJQsqaUBKTNV-1" source="yTWM4LRYes1PWLr559-A-205" target="yTWM4LRYes1PWLr559-A-96">
          <mxGeometry width="50" height="50" relative="1" as="geometry">
            <mxPoint x="360" y="450" as="sourcePoint" />
            <mxPoint x="360" y="720" as="targetPoint" />
            <Array as="points">
              <mxPoint x="360" y="680" />
            </Array>
          </mxGeometry>
        </mxCell>
        <mxCell id="yTWM4LRYes1PWLr559-A-177" value="" style="endArrow=classic;html=1;fontColor=#393C56;strokeColor=#10739e;fillColor=#b1ddf0;entryX=0;entryY=0.5;entryDx=0;entryDy=0;startArrow=none;strokeWidth=3;" edge="1" parent="WIyWlLk6GJQsqaUBKTNV-1" source="yTWM4LRYes1PWLr559-A-207" target="yTWM4LRYes1PWLr559-A-110">
          <mxGeometry width="50" height="50" relative="1" as="geometry">
            <mxPoint x="350" y="680" as="sourcePoint" />
            <mxPoint x="530" y="420" as="targetPoint" />
          </mxGeometry>
        </mxCell>
        <mxCell id="yTWM4LRYes1PWLr559-A-182" style="edgeStyle=orthogonalEdgeStyle;curved=0;rounded=1;sketch=0;orthogonalLoop=1;jettySize=auto;html=1;exitX=1;exitY=0.5;exitDx=0;exitDy=0;entryX=1;entryY=0.5;entryDx=0;entryDy=0;fontColor=#393C56;strokeColor=#3A5431;fillColor=#6d8764;strokeWidth=3;" edge="1" parent="WIyWlLk6GJQsqaUBKTNV-1" source="yTWM4LRYes1PWLr559-A-54" target="yTWM4LRYes1PWLr559-A-178">
          <mxGeometry relative="1" as="geometry">
            <Array as="points">
              <mxPoint x="1150" y="210" />
              <mxPoint x="1150" y="520" />
            </Array>
          </mxGeometry>
        </mxCell>
        <mxCell id="yTWM4LRYes1PWLr559-A-183" value="" style="endArrow=classic;html=1;fontColor=#393C56;strokeColor=#005700;fillColor=#008a00;entryX=0;entryY=0.5;entryDx=0;entryDy=0;startArrow=none;strokeWidth=3;" edge="1" parent="WIyWlLk6GJQsqaUBKTNV-1" source="yTWM4LRYes1PWLr559-A-229" target="yTWM4LRYes1PWLr559-A-99">
          <mxGeometry width="50" height="50" relative="1" as="geometry">
            <mxPoint x="1150" y="510" as="sourcePoint" />
            <mxPoint x="530" y="500" as="targetPoint" />
            <Array as="points">
              <mxPoint x="60" y="876" />
              <mxPoint x="60" y="700" />
            </Array>
          </mxGeometry>
        </mxCell>
        <mxCell id="yTWM4LRYes1PWLr559-A-184" style="edgeStyle=orthogonalEdgeStyle;curved=0;rounded=1;sketch=0;orthogonalLoop=1;jettySize=auto;html=1;exitX=1;exitY=0.5;exitDx=0;exitDy=0;entryX=1;entryY=0.5;entryDx=0;entryDy=0;fontColor=#393C56;fillColor=#e3c800;strokeColor=#B09500;strokeWidth=3;" edge="1" parent="WIyWlLk6GJQsqaUBKTNV-1" source="yTWM4LRYes1PWLr559-A-69" target="yTWM4LRYes1PWLr559-A-123">
          <mxGeometry relative="1" as="geometry">
            <Array as="points">
              <mxPoint x="1080" y="440" />
              <mxPoint x="1080" y="800" />
            </Array>
          </mxGeometry>
        </mxCell>
        <mxCell id="yTWM4LRYes1PWLr559-A-188" value="1 -&amp;nbsp; N&amp;nbsp;" style="whiteSpace=wrap;html=1;rounded=0;sketch=0;fontColor=#ffffff;strokeColor=#6D1F00;fillColor=#a0522d;" vertex="1" parent="WIyWlLk6GJQsqaUBKTNV-1">
          <mxGeometry x="730" y="490" width="50" height="20" as="geometry" />
        </mxCell>
        <mxCell id="yTWM4LRYes1PWLr559-A-189" value="1 - N" style="whiteSpace=wrap;html=1;rounded=0;sketch=0;fontColor=#ffffff;strokeColor=#6D1F00;fillColor=#a0522d;" vertex="1" parent="WIyWlLk6GJQsqaUBKTNV-1">
          <mxGeometry x="740" y="710" width="50" height="20" as="geometry" />
        </mxCell>
        <mxCell id="yTWM4LRYes1PWLr559-A-191" value="N - 1" style="whiteSpace=wrap;html=1;rounded=0;sketch=0;fontColor=#ffffff;strokeColor=#6D1F00;fillColor=#a0522d;" vertex="1" parent="WIyWlLk6GJQsqaUBKTNV-1">
          <mxGeometry x="380" y="710" width="50" height="20" as="geometry" />
        </mxCell>
        <mxCell id="yTWM4LRYes1PWLr559-A-193" value="" style="endArrow=none;html=1;entryX=1;entryY=0.5;entryDx=0;entryDy=0;strokeColor=#b46504;fontColor=#393C56;labelBackgroundColor=#F4F1DE;fillColor=#fad7ac;strokeWidth=3;" edge="1" parent="WIyWlLk6GJQsqaUBKTNV-1" target="yTWM4LRYes1PWLr559-A-191">
          <mxGeometry width="50" height="50" relative="1" as="geometry">
            <mxPoint x="570" y="720" as="sourcePoint" />
            <mxPoint x="230" y="720" as="targetPoint" />
            <Array as="points">
              <mxPoint x="430" y="720" />
            </Array>
          </mxGeometry>
        </mxCell>
        <mxCell id="yTWM4LRYes1PWLr559-A-194" value="1 - N" style="whiteSpace=wrap;html=1;rounded=0;sketch=0;fontColor=#ffffff;strokeColor=#6D1F00;fillColor=#a0522d;" vertex="1" parent="WIyWlLk6GJQsqaUBKTNV-1">
          <mxGeometry x="710" y="280" width="50" height="20" as="geometry" />
        </mxCell>
        <mxCell id="yTWM4LRYes1PWLr559-A-195" value="" style="endArrow=none;html=1;entryX=-0.022;entryY=0.67;entryDx=0;entryDy=0;entryPerimeter=0;strokeColor=#b46504;fontColor=#393C56;labelBackgroundColor=#F4F1DE;fillColor=#fad7ac;strokeWidth=3;" edge="1" parent="WIyWlLk6GJQsqaUBKTNV-1" target="yTWM4LRYes1PWLr559-A-194">
          <mxGeometry width="50" height="50" relative="1" as="geometry">
            <mxPoint x="560" y="293" as="sourcePoint" />
            <mxPoint x="869.3400000000001" y="293.39999999999986" as="targetPoint" />
          </mxGeometry>
        </mxCell>
        <mxCell id="yTWM4LRYes1PWLr559-A-196" value="N - M" style="whiteSpace=wrap;html=1;rounded=0;sketch=0;fontColor=#ffffff;strokeColor=#6D1F00;fillColor=#a0522d;" vertex="1" parent="WIyWlLk6GJQsqaUBKTNV-1">
          <mxGeometry x="420" y="500" width="50" height="20" as="geometry" />
        </mxCell>
        <mxCell id="yTWM4LRYes1PWLr559-A-197" value="" style="endArrow=none;html=1;entryX=1;entryY=0.5;entryDx=0;entryDy=0;strokeColor=#b46504;fontColor=#393C56;labelBackgroundColor=#F4F1DE;fillColor=#fad7ac;strokeWidth=3;" edge="1" parent="WIyWlLk6GJQsqaUBKTNV-1" target="yTWM4LRYes1PWLr559-A-196">
          <mxGeometry width="50" height="50" relative="1" as="geometry">
            <mxPoint x="560" y="510" as="sourcePoint" />
            <mxPoint x="220" y="510" as="targetPoint" />
          </mxGeometry>
        </mxCell>
        <mxCell id="yTWM4LRYes1PWLr559-A-202" value="1 - N&amp;nbsp;" style="whiteSpace=wrap;html=1;rounded=0;sketch=0;strokeColor=#0e8088;fillColor=#b0e3e6;" vertex="1" parent="WIyWlLk6GJQsqaUBKTNV-1">
          <mxGeometry x="730" y="455" width="50" height="20" as="geometry" />
        </mxCell>
        <mxCell id="yTWM4LRYes1PWLr559-A-203" value="1 - N" style="whiteSpace=wrap;html=1;rounded=0;sketch=0;strokeColor=#0e8088;fillColor=#b0e3e6;" vertex="1" parent="WIyWlLk6GJQsqaUBKTNV-1">
          <mxGeometry x="780" y="260" width="50" height="20" as="geometry" />
        </mxCell>
        <mxCell id="yTWM4LRYes1PWLr559-A-205" value="N - 1" style="whiteSpace=wrap;html=1;rounded=0;sketch=0;strokeColor=#0e8088;fillColor=#b0e3e6;" vertex="1" parent="WIyWlLk6GJQsqaUBKTNV-1">
          <mxGeometry x="280" y="670" width="50" height="20" as="geometry" />
        </mxCell>
        <mxCell id="yTWM4LRYes1PWLr559-A-206" value="" style="endArrow=none;html=1;fontColor=#393C56;strokeColor=#10739e;fillColor=#b1ddf0;entryX=1;entryY=0.5;entryDx=0;entryDy=0;strokeWidth=3;" edge="1" parent="WIyWlLk6GJQsqaUBKTNV-1" target="yTWM4LRYes1PWLr559-A-205">
          <mxGeometry width="50" height="50" relative="1" as="geometry">
            <mxPoint x="360" y="450" as="sourcePoint" />
            <mxPoint x="230" y="680" as="targetPoint" />
            <Array as="points">
              <mxPoint x="360" y="680" />
            </Array>
          </mxGeometry>
        </mxCell>
        <mxCell id="yTWM4LRYes1PWLr559-A-207" value="1 - N" style="whiteSpace=wrap;html=1;rounded=0;sketch=0;strokeColor=#10739e;fillColor=#b1ddf0;" vertex="1" parent="WIyWlLk6GJQsqaUBKTNV-1">
          <mxGeometry x="780" y="670" width="50" height="20" as="geometry" />
        </mxCell>
        <mxCell id="yTWM4LRYes1PWLr559-A-208" value="" style="endArrow=none;html=1;fontColor=#393C56;strokeColor=#10739e;fillColor=#b1ddf0;entryX=0;entryY=0.5;entryDx=0;entryDy=0;strokeWidth=3;" edge="1" parent="WIyWlLk6GJQsqaUBKTNV-1" target="yTWM4LRYes1PWLr559-A-207">
          <mxGeometry width="50" height="50" relative="1" as="geometry">
            <mxPoint x="350" y="680" as="sourcePoint" />
            <mxPoint x="885" y="680" as="targetPoint" />
          </mxGeometry>
        </mxCell>
        <mxCell id="yTWM4LRYes1PWLr559-A-210" style="edgeStyle=orthogonalEdgeStyle;curved=0;rounded=1;sketch=0;orthogonalLoop=1;jettySize=auto;html=1;exitX=1;exitY=0.5;exitDx=0;exitDy=0;entryX=0;entryY=0.5;entryDx=0;entryDy=0;fontColor=#393C56;strokeColor=#A50040;fillColor=#d80073;strokeWidth=3;" edge="1" parent="WIyWlLk6GJQsqaUBKTNV-1" source="yTWM4LRYes1PWLr559-A-93" target="yTWM4LRYes1PWLr559-A-113">
          <mxGeometry relative="1" as="geometry">
            <Array as="points">
              <mxPoint x="510" y="660" />
              <mxPoint x="510" y="700" />
            </Array>
          </mxGeometry>
        </mxCell>
        <mxCell id="yTWM4LRYes1PWLr559-A-214" value="1 - N" style="whiteSpace=wrap;html=1;rounded=0;sketch=0;fillColor=#d80073;strokeColor=#A50040;fontColor=#ffffff;" vertex="1" parent="WIyWlLk6GJQsqaUBKTNV-1">
          <mxGeometry x="590" y="690" width="50" height="20" as="geometry" />
        </mxCell>
        <mxCell id="yTWM4LRYes1PWLr559-A-216" value="1 - 1" style="whiteSpace=wrap;html=1;rounded=0;sketch=0;strokeColor=#005700;fillColor=#008a00;fontColor=#ffffff;" vertex="1" parent="WIyWlLk6GJQsqaUBKTNV-1">
          <mxGeometry x="1090" y="510" width="50" height="20" as="geometry" />
        </mxCell>
        <mxCell id="yTWM4LRYes1PWLr559-A-229" value="1 - 1" style="whiteSpace=wrap;html=1;rounded=0;sketch=0;strokeColor=#005700;fillColor=#008a00;fontColor=#ffffff;" vertex="1" parent="WIyWlLk6GJQsqaUBKTNV-1">
          <mxGeometry x="560" y="870" width="50" height="20" as="geometry" />
        </mxCell>
        <mxCell id="yTWM4LRYes1PWLr559-A-231" value="" style="endArrow=none;html=1;fontColor=#393C56;strokeColor=#3A5431;fillColor=#6d8764;exitX=1;exitY=0.5;exitDx=0;exitDy=0;strokeWidth=3;" edge="1" parent="WIyWlLk6GJQsqaUBKTNV-1" source="yTWM4LRYes1PWLr559-A-229">
          <mxGeometry width="50" height="50" relative="1" as="geometry">
            <mxPoint x="480" y="600" as="sourcePoint" />
            <mxPoint x="1150" y="500" as="targetPoint" />
            <Array as="points">
              <mxPoint x="1150" y="880" />
            </Array>
          </mxGeometry>
        </mxCell>
        <mxCell id="yTWM4LRYes1PWLr559-A-232" value="N - 1" style="whiteSpace=wrap;html=1;rounded=0;sketch=0;strokeColor=#B09500;fillColor=#e3c800;fontColor=#ffffff;rotation=-90;direction=west;" vertex="1" parent="WIyWlLk6GJQsqaUBKTNV-1">
          <mxGeometry x="1057" y="702" width="50" height="20" as="geometry" />
        </mxCell>
        <mxCell id="yTWM4LRYes1PWLr559-A-244" value="Payment" style="shape=table;html=1;whiteSpace=wrap;startSize=30;container=1;collapsible=0;childLayout=tableLayout;fixedRows=1;rowLines=0;fontStyle=1;align=center;fillColor=#008a00;strokeColor=#005700;fontColor=#ffffff;" vertex="1" parent="WIyWlLk6GJQsqaUBKTNV-1">
          <mxGeometry x="1760" y="400" width="140" height="220" as="geometry" />
        </mxCell>
        <mxCell id="yTWM4LRYes1PWLr559-A-245" value="" style="shape=partialRectangle;html=1;whiteSpace=wrap;collapsible=0;dropTarget=0;pointerEvents=0;fillColor=none;top=0;left=0;bottom=1;right=0;points=[[0,0.5],[1,0.5]];portConstraint=eastwest;strokeColor=#E07A5F;fontColor=#393C56;" vertex="1" parent="yTWM4LRYes1PWLr559-A-244">
          <mxGeometry y="30" width="140" height="30" as="geometry" />
        </mxCell>
        <mxCell id="yTWM4LRYes1PWLr559-A-246" value="PK" style="shape=partialRectangle;html=1;whiteSpace=wrap;connectable=0;fillColor=none;top=0;left=0;bottom=0;right=0;overflow=hidden;strokeColor=#E07A5F;fontColor=#393C56;" vertex="1" parent="yTWM4LRYes1PWLr559-A-245">
          <mxGeometry width="31" height="30" as="geometry" />
        </mxCell>
        <mxCell id="yTWM4LRYes1PWLr559-A-247" value="PaymentID" style="shape=partialRectangle;html=1;whiteSpace=wrap;connectable=0;fillColor=none;top=0;left=0;bottom=0;right=0;align=left;spacingLeft=6;overflow=hidden;strokeColor=#E07A5F;fontColor=#393C56;" vertex="1" parent="yTWM4LRYes1PWLr559-A-245">
          <mxGeometry x="31" width="109" height="30" as="geometry" />
        </mxCell>
        <mxCell id="yTWM4LRYes1PWLr559-A-248" value="" style="shape=partialRectangle;html=1;whiteSpace=wrap;collapsible=0;dropTarget=0;pointerEvents=0;fillColor=none;top=0;left=0;bottom=0;right=0;points=[[0,0.5],[1,0.5]];portConstraint=eastwest;strokeColor=#E07A5F;fontColor=#393C56;" vertex="1" parent="yTWM4LRYes1PWLr559-A-244">
          <mxGeometry y="60" width="140" height="20" as="geometry" />
        </mxCell>
        <mxCell id="yTWM4LRYes1PWLr559-A-249" value="FK" style="shape=partialRectangle;html=1;whiteSpace=wrap;connectable=0;fillColor=none;top=0;left=0;bottom=0;right=0;overflow=hidden;strokeColor=#E07A5F;fontColor=#393C56;" vertex="1" parent="yTWM4LRYes1PWLr559-A-248">
          <mxGeometry width="31" height="20" as="geometry" />
        </mxCell>
        <mxCell id="yTWM4LRYes1PWLr559-A-250" value="AcademyID" style="shape=partialRectangle;html=1;whiteSpace=wrap;connectable=0;fillColor=none;top=0;left=0;bottom=0;right=0;align=left;spacingLeft=6;overflow=hidden;strokeColor=#E07A5F;fontColor=#393C56;" vertex="1" parent="yTWM4LRYes1PWLr559-A-248">
          <mxGeometry x="31" width="109" height="20" as="geometry" />
        </mxCell>
        <mxCell id="yTWM4LRYes1PWLr559-A-251" value="" style="shape=partialRectangle;html=1;whiteSpace=wrap;collapsible=0;dropTarget=0;pointerEvents=0;fillColor=none;top=0;left=0;bottom=0;right=0;points=[[0,0.5],[1,0.5]];portConstraint=eastwest;strokeColor=#E07A5F;fontColor=#393C56;" vertex="1" parent="yTWM4LRYes1PWLr559-A-244">
          <mxGeometry y="80" width="140" height="20" as="geometry" />
        </mxCell>
        <mxCell id="yTWM4LRYes1PWLr559-A-252" value="" style="shape=partialRectangle;html=1;whiteSpace=wrap;connectable=0;fillColor=none;top=0;left=0;bottom=0;right=0;overflow=hidden;strokeColor=#E07A5F;fontColor=#393C56;" vertex="1" parent="yTWM4LRYes1PWLr559-A-251">
          <mxGeometry width="31" height="20" as="geometry" />
        </mxCell>
        <mxCell id="yTWM4LRYes1PWLr559-A-253" value="PayDate" style="shape=partialRectangle;html=1;whiteSpace=wrap;connectable=0;fillColor=none;top=0;left=0;bottom=0;right=0;align=left;spacingLeft=6;overflow=hidden;strokeColor=#E07A5F;fontColor=#393C56;" vertex="1" parent="yTWM4LRYes1PWLr559-A-251">
          <mxGeometry x="31" width="109" height="20" as="geometry" />
        </mxCell>
        <mxCell id="yTWM4LRYes1PWLr559-A-276" value="" style="shape=partialRectangle;html=1;whiteSpace=wrap;collapsible=0;dropTarget=0;pointerEvents=0;fillColor=none;top=0;left=0;bottom=0;right=0;points=[[0,0.5],[1,0.5]];portConstraint=eastwest;strokeColor=#E07A5F;fontColor=#393C56;" vertex="1" parent="yTWM4LRYes1PWLr559-A-244">
          <mxGeometry y="100" width="140" height="20" as="geometry" />
        </mxCell>
        <mxCell id="yTWM4LRYes1PWLr559-A-277" value="" style="shape=partialRectangle;html=1;whiteSpace=wrap;connectable=0;fillColor=none;top=0;left=0;bottom=0;right=0;overflow=hidden;strokeColor=#E07A5F;fontColor=#393C56;" vertex="1" parent="yTWM4LRYes1PWLr559-A-276">
          <mxGeometry width="31" height="20" as="geometry" />
        </mxCell>
        <mxCell id="yTWM4LRYes1PWLr559-A-278" value="PaymenType" style="shape=partialRectangle;html=1;whiteSpace=wrap;connectable=0;fillColor=none;top=0;left=0;bottom=0;right=0;align=left;spacingLeft=6;overflow=hidden;strokeColor=#E07A5F;fontColor=#393C56;" vertex="1" parent="yTWM4LRYes1PWLr559-A-276">
          <mxGeometry x="31" width="109" height="20" as="geometry" />
        </mxCell>
        <mxCell id="yTWM4LRYes1PWLr559-A-279" value="" style="shape=partialRectangle;html=1;whiteSpace=wrap;collapsible=0;dropTarget=0;pointerEvents=0;fillColor=none;top=0;left=0;bottom=0;right=0;points=[[0,0.5],[1,0.5]];portConstraint=eastwest;strokeColor=#E07A5F;fontColor=#393C56;" vertex="1" parent="yTWM4LRYes1PWLr559-A-244">
          <mxGeometry y="120" width="140" height="20" as="geometry" />
        </mxCell>
        <mxCell id="yTWM4LRYes1PWLr559-A-280" value="FK" style="shape=partialRectangle;html=1;whiteSpace=wrap;connectable=0;fillColor=none;top=0;left=0;bottom=0;right=0;overflow=hidden;strokeColor=#E07A5F;fontColor=#393C56;" vertex="1" parent="yTWM4LRYes1PWLr559-A-279">
          <mxGeometry width="31" height="20" as="geometry" />
        </mxCell>
        <mxCell id="yTWM4LRYes1PWLr559-A-281" value="SalaryID" style="shape=partialRectangle;html=1;whiteSpace=wrap;connectable=0;fillColor=none;top=0;left=0;bottom=0;right=0;align=left;spacingLeft=6;overflow=hidden;strokeColor=#E07A5F;fontColor=#393C56;" vertex="1" parent="yTWM4LRYes1PWLr559-A-279">
          <mxGeometry x="31" width="109" height="20" as="geometry" />
        </mxCell>
        <mxCell id="yTWM4LRYes1PWLr559-A-330" value="" style="shape=partialRectangle;html=1;whiteSpace=wrap;collapsible=0;dropTarget=0;pointerEvents=0;fillColor=none;top=0;left=0;bottom=0;right=0;points=[[0,0.5],[1,0.5]];portConstraint=eastwest;strokeColor=#E07A5F;fontColor=#393C56;" vertex="1" parent="yTWM4LRYes1PWLr559-A-244">
          <mxGeometry y="140" width="140" height="20" as="geometry" />
        </mxCell>
        <mxCell id="yTWM4LRYes1PWLr559-A-331" value="FK" style="shape=partialRectangle;html=1;whiteSpace=wrap;connectable=0;fillColor=none;top=0;left=0;bottom=0;right=0;overflow=hidden;strokeColor=#E07A5F;fontColor=#393C56;" vertex="1" parent="yTWM4LRYes1PWLr559-A-330">
          <mxGeometry width="31" height="20" as="geometry" />
        </mxCell>
        <mxCell id="yTWM4LRYes1PWLr559-A-332" value="FeeID" style="shape=partialRectangle;html=1;whiteSpace=wrap;connectable=0;fillColor=none;top=0;left=0;bottom=0;right=0;align=left;spacingLeft=6;overflow=hidden;strokeColor=#E07A5F;fontColor=#393C56;" vertex="1" parent="yTWM4LRYes1PWLr559-A-330">
          <mxGeometry x="31" width="109" height="20" as="geometry" />
        </mxCell>
        <mxCell id="yTWM4LRYes1PWLr559-A-354" value="" style="shape=partialRectangle;html=1;whiteSpace=wrap;collapsible=0;dropTarget=0;pointerEvents=0;fillColor=none;top=0;left=0;bottom=0;right=0;points=[[0,0.5],[1,0.5]];portConstraint=eastwest;strokeColor=#E07A5F;fontColor=#393C56;" vertex="1" parent="yTWM4LRYes1PWLr559-A-244">
          <mxGeometry y="160" width="140" height="20" as="geometry" />
        </mxCell>
        <mxCell id="yTWM4LRYes1PWLr559-A-355" value="" style="shape=partialRectangle;html=1;whiteSpace=wrap;connectable=0;fillColor=none;top=0;left=0;bottom=0;right=0;overflow=hidden;strokeColor=#E07A5F;fontColor=#393C56;" vertex="1" parent="yTWM4LRYes1PWLr559-A-354">
          <mxGeometry width="31" height="20" as="geometry" />
        </mxCell>
        <mxCell id="yTWM4LRYes1PWLr559-A-356" value="Amount" style="shape=partialRectangle;html=1;whiteSpace=wrap;connectable=0;fillColor=none;top=0;left=0;bottom=0;right=0;align=left;spacingLeft=6;overflow=hidden;strokeColor=#E07A5F;fontColor=#393C56;" vertex="1" parent="yTWM4LRYes1PWLr559-A-354">
          <mxGeometry x="31" width="109" height="20" as="geometry" />
        </mxCell>
        <mxCell id="yTWM4LRYes1PWLr559-A-282" value="Salary" style="shape=table;html=1;whiteSpace=wrap;startSize=30;container=1;collapsible=0;childLayout=tableLayout;fixedRows=1;rowLines=0;fontStyle=1;align=center;fillColor=#d5e8d4;strokeColor=#82b366;gradientColor=#97d077;" vertex="1" parent="WIyWlLk6GJQsqaUBKTNV-1">
          <mxGeometry x="1300" y="270" width="140" height="170" as="geometry" />
        </mxCell>
        <mxCell id="yTWM4LRYes1PWLr559-A-283" value="" style="shape=partialRectangle;html=1;whiteSpace=wrap;collapsible=0;dropTarget=0;pointerEvents=0;fillColor=none;top=0;left=0;bottom=1;right=0;points=[[0,0.5],[1,0.5]];portConstraint=eastwest;strokeColor=#E07A5F;fontColor=#393C56;" vertex="1" parent="yTWM4LRYes1PWLr559-A-282">
          <mxGeometry y="30" width="140" height="30" as="geometry" />
        </mxCell>
        <mxCell id="yTWM4LRYes1PWLr559-A-284" value="Pk" style="shape=partialRectangle;html=1;whiteSpace=wrap;connectable=0;fillColor=none;top=0;left=0;bottom=0;right=0;overflow=hidden;strokeColor=#E07A5F;fontColor=#393C56;" vertex="1" parent="yTWM4LRYes1PWLr559-A-283">
          <mxGeometry width="31" height="30" as="geometry" />
        </mxCell>
        <mxCell id="yTWM4LRYes1PWLr559-A-285" value="SalaryID" style="shape=partialRectangle;html=1;whiteSpace=wrap;connectable=0;fillColor=none;top=0;left=0;bottom=0;right=0;align=left;spacingLeft=6;overflow=hidden;strokeColor=#E07A5F;fontColor=#393C56;" vertex="1" parent="yTWM4LRYes1PWLr559-A-283">
          <mxGeometry x="31" width="109" height="30" as="geometry" />
        </mxCell>
        <mxCell id="yTWM4LRYes1PWLr559-A-286" value="" style="shape=partialRectangle;html=1;whiteSpace=wrap;collapsible=0;dropTarget=0;pointerEvents=0;fillColor=none;top=0;left=0;bottom=0;right=0;points=[[0,0.5],[1,0.5]];portConstraint=eastwest;strokeColor=#E07A5F;fontColor=#393C56;" vertex="1" parent="yTWM4LRYes1PWLr559-A-282">
          <mxGeometry y="60" width="140" height="20" as="geometry" />
        </mxCell>
        <mxCell id="yTWM4LRYes1PWLr559-A-287" value="" style="shape=partialRectangle;html=1;whiteSpace=wrap;connectable=0;fillColor=none;top=0;left=0;bottom=0;right=0;overflow=hidden;strokeColor=#E07A5F;fontColor=#393C56;" vertex="1" parent="yTWM4LRYes1PWLr559-A-286">
          <mxGeometry width="31" height="20" as="geometry" />
        </mxCell>
        <mxCell id="yTWM4LRYes1PWLr559-A-288" value="Amount" style="shape=partialRectangle;html=1;whiteSpace=wrap;connectable=0;fillColor=none;top=0;left=0;bottom=0;right=0;align=left;spacingLeft=6;overflow=hidden;strokeColor=#E07A5F;fontColor=#393C56;" vertex="1" parent="yTWM4LRYes1PWLr559-A-286">
          <mxGeometry x="31" width="109" height="20" as="geometry" />
        </mxCell>
        <mxCell id="yTWM4LRYes1PWLr559-A-289" value="" style="shape=partialRectangle;html=1;whiteSpace=wrap;collapsible=0;dropTarget=0;pointerEvents=0;fillColor=none;top=0;left=0;bottom=0;right=0;points=[[0,0.5],[1,0.5]];portConstraint=eastwest;strokeColor=#E07A5F;fontColor=#393C56;" vertex="1" parent="yTWM4LRYes1PWLr559-A-282">
          <mxGeometry y="80" width="140" height="20" as="geometry" />
        </mxCell>
        <mxCell id="yTWM4LRYes1PWLr559-A-290" value="FK" style="shape=partialRectangle;html=1;whiteSpace=wrap;connectable=0;fillColor=none;top=0;left=0;bottom=0;right=0;overflow=hidden;strokeColor=#E07A5F;fontColor=#393C56;" vertex="1" parent="yTWM4LRYes1PWLr559-A-289">
          <mxGeometry width="31" height="20" as="geometry" />
        </mxCell>
        <mxCell id="yTWM4LRYes1PWLr559-A-291" value="CoachId" style="shape=partialRectangle;html=1;whiteSpace=wrap;connectable=0;fillColor=none;top=0;left=0;bottom=0;right=0;align=left;spacingLeft=6;overflow=hidden;strokeColor=#E07A5F;fontColor=#393C56;" vertex="1" parent="yTWM4LRYes1PWLr559-A-289">
          <mxGeometry x="31" width="109" height="20" as="geometry" />
        </mxCell>
        <mxCell id="yTWM4LRYes1PWLr559-A-292" value="" style="shape=partialRectangle;html=1;whiteSpace=wrap;collapsible=0;dropTarget=0;pointerEvents=0;fillColor=none;top=0;left=0;bottom=0;right=0;points=[[0,0.5],[1,0.5]];portConstraint=eastwest;strokeColor=#E07A5F;fontColor=#393C56;" vertex="1" parent="yTWM4LRYes1PWLr559-A-282">
          <mxGeometry y="100" width="140" height="20" as="geometry" />
        </mxCell>
        <mxCell id="yTWM4LRYes1PWLr559-A-293" value="FK" style="shape=partialRectangle;html=1;whiteSpace=wrap;connectable=0;fillColor=none;top=0;left=0;bottom=0;right=0;overflow=hidden;strokeColor=#E07A5F;fontColor=#393C56;" vertex="1" parent="yTWM4LRYes1PWLr559-A-292">
          <mxGeometry width="31" height="20" as="geometry" />
        </mxCell>
        <mxCell id="yTWM4LRYes1PWLr559-A-294" value="PlayerId" style="shape=partialRectangle;html=1;whiteSpace=wrap;connectable=0;fillColor=none;top=0;left=0;bottom=0;right=0;align=left;spacingLeft=6;overflow=hidden;strokeColor=#E07A5F;fontColor=#393C56;" vertex="1" parent="yTWM4LRYes1PWLr559-A-292">
          <mxGeometry x="31" width="109" height="20" as="geometry" />
        </mxCell>
        <mxCell id="yTWM4LRYes1PWLr559-A-327" value="" style="shape=partialRectangle;html=1;whiteSpace=wrap;collapsible=0;dropTarget=0;pointerEvents=0;fillColor=none;top=0;left=0;bottom=0;right=0;points=[[0,0.5],[1,0.5]];portConstraint=eastwest;strokeColor=#E07A5F;fontColor=#393C56;" vertex="1" parent="yTWM4LRYes1PWLr559-A-282">
          <mxGeometry y="120" width="140" height="20" as="geometry" />
        </mxCell>
        <mxCell id="yTWM4LRYes1PWLr559-A-328" value="" style="shape=partialRectangle;html=1;whiteSpace=wrap;connectable=0;fillColor=none;top=0;left=0;bottom=0;right=0;overflow=hidden;strokeColor=#E07A5F;fontColor=#393C56;" vertex="1" parent="yTWM4LRYes1PWLr559-A-327">
          <mxGeometry width="31" height="20" as="geometry" />
        </mxCell>
        <mxCell id="yTWM4LRYes1PWLr559-A-329" value="IsPaid" style="shape=partialRectangle;html=1;whiteSpace=wrap;connectable=0;fillColor=none;top=0;left=0;bottom=0;right=0;align=left;spacingLeft=6;overflow=hidden;strokeColor=#E07A5F;fontColor=#393C56;" vertex="1" parent="yTWM4LRYes1PWLr559-A-327">
          <mxGeometry x="31" width="109" height="20" as="geometry" />
        </mxCell>
        <mxCell id="yTWM4LRYes1PWLr559-A-351" value="" style="shape=partialRectangle;html=1;whiteSpace=wrap;collapsible=0;dropTarget=0;pointerEvents=0;fillColor=none;top=0;left=0;bottom=0;right=0;points=[[0,0.5],[1,0.5]];portConstraint=eastwest;strokeColor=#E07A5F;fontColor=#393C56;" vertex="1" parent="yTWM4LRYes1PWLr559-A-282">
          <mxGeometry y="140" width="140" height="20" as="geometry" />
        </mxCell>
        <mxCell id="yTWM4LRYes1PWLr559-A-352" value="FK" style="shape=partialRectangle;html=1;whiteSpace=wrap;connectable=0;fillColor=none;top=0;left=0;bottom=0;right=0;overflow=hidden;strokeColor=#E07A5F;fontColor=#393C56;" vertex="1" parent="yTWM4LRYes1PWLr559-A-351">
          <mxGeometry width="31" height="20" as="geometry" />
        </mxCell>
        <mxCell id="yTWM4LRYes1PWLr559-A-353" value="AcademyID" style="shape=partialRectangle;html=1;whiteSpace=wrap;connectable=0;fillColor=none;top=0;left=0;bottom=0;right=0;align=left;spacingLeft=6;overflow=hidden;strokeColor=#E07A5F;fontColor=#393C56;" vertex="1" parent="yTWM4LRYes1PWLr559-A-351">
          <mxGeometry x="31" width="109" height="20" as="geometry" />
        </mxCell>
        <mxCell id="yTWM4LRYes1PWLr559-A-295" value="Fee" style="shape=table;html=1;whiteSpace=wrap;startSize=30;container=1;collapsible=0;childLayout=tableLayout;fixedRows=1;rowLines=0;fontStyle=1;align=center;fillColor=#76608a;strokeColor=#432D57;fontColor=#ffffff;" vertex="1" parent="WIyWlLk6GJQsqaUBKTNV-1">
          <mxGeometry x="1310" y="680" width="140" height="150" as="geometry" />
        </mxCell>
        <mxCell id="yTWM4LRYes1PWLr559-A-296" value="" style="shape=partialRectangle;html=1;whiteSpace=wrap;collapsible=0;dropTarget=0;pointerEvents=0;fillColor=none;top=0;left=0;bottom=1;right=0;points=[[0,0.5],[1,0.5]];portConstraint=eastwest;strokeColor=#E07A5F;fontColor=#393C56;" vertex="1" parent="yTWM4LRYes1PWLr559-A-295">
          <mxGeometry y="30" width="140" height="20" as="geometry" />
        </mxCell>
        <mxCell id="yTWM4LRYes1PWLr559-A-297" value="Pk" style="shape=partialRectangle;html=1;whiteSpace=wrap;connectable=0;fillColor=none;top=0;left=0;bottom=0;right=0;overflow=hidden;strokeColor=#E07A5F;fontColor=#393C56;" vertex="1" parent="yTWM4LRYes1PWLr559-A-296">
          <mxGeometry width="31" height="20" as="geometry" />
        </mxCell>
        <mxCell id="yTWM4LRYes1PWLr559-A-298" value="FeeID" style="shape=partialRectangle;html=1;whiteSpace=wrap;connectable=0;fillColor=none;top=0;left=0;bottom=0;right=0;align=left;spacingLeft=6;overflow=hidden;strokeColor=#E07A5F;fontColor=#393C56;" vertex="1" parent="yTWM4LRYes1PWLr559-A-296">
          <mxGeometry x="31" width="109" height="20" as="geometry" />
        </mxCell>
        <mxCell id="yTWM4LRYes1PWLr559-A-299" value="" style="shape=partialRectangle;html=1;whiteSpace=wrap;collapsible=0;dropTarget=0;pointerEvents=0;fillColor=none;top=0;left=0;bottom=0;right=0;points=[[0,0.5],[1,0.5]];portConstraint=eastwest;strokeColor=#E07A5F;fontColor=#393C56;" vertex="1" parent="yTWM4LRYes1PWLr559-A-295">
          <mxGeometry y="50" width="140" height="20" as="geometry" />
        </mxCell>
        <mxCell id="yTWM4LRYes1PWLr559-A-300" value="" style="shape=partialRectangle;html=1;whiteSpace=wrap;connectable=0;fillColor=none;top=0;left=0;bottom=0;right=0;overflow=hidden;strokeColor=#E07A5F;fontColor=#393C56;" vertex="1" parent="yTWM4LRYes1PWLr559-A-299">
          <mxGeometry width="31" height="20" as="geometry" />
        </mxCell>
        <mxCell id="yTWM4LRYes1PWLr559-A-301" value="Amount" style="shape=partialRectangle;html=1;whiteSpace=wrap;connectable=0;fillColor=none;top=0;left=0;bottom=0;right=0;align=left;spacingLeft=6;overflow=hidden;strokeColor=#E07A5F;fontColor=#393C56;" vertex="1" parent="yTWM4LRYes1PWLr559-A-299">
          <mxGeometry x="31" width="109" height="20" as="geometry" />
        </mxCell>
        <mxCell id="yTWM4LRYes1PWLr559-A-305" value="" style="shape=partialRectangle;html=1;whiteSpace=wrap;collapsible=0;dropTarget=0;pointerEvents=0;fillColor=none;top=0;left=0;bottom=0;right=0;points=[[0,0.5],[1,0.5]];portConstraint=eastwest;strokeColor=#E07A5F;fontColor=#393C56;" vertex="1" parent="yTWM4LRYes1PWLr559-A-295">
          <mxGeometry y="70" width="140" height="20" as="geometry" />
        </mxCell>
        <mxCell id="yTWM4LRYes1PWLr559-A-306" value="FK" style="shape=partialRectangle;html=1;whiteSpace=wrap;connectable=0;fillColor=none;top=0;left=0;bottom=0;right=0;overflow=hidden;strokeColor=#E07A5F;fontColor=#393C56;" vertex="1" parent="yTWM4LRYes1PWLr559-A-305">
          <mxGeometry width="31" height="20" as="geometry" />
        </mxCell>
        <mxCell id="yTWM4LRYes1PWLr559-A-307" value="PlayerId" style="shape=partialRectangle;html=1;whiteSpace=wrap;connectable=0;fillColor=none;top=0;left=0;bottom=0;right=0;align=left;spacingLeft=6;overflow=hidden;strokeColor=#E07A5F;fontColor=#393C56;" vertex="1" parent="yTWM4LRYes1PWLr559-A-305">
          <mxGeometry x="31" width="109" height="20" as="geometry" />
        </mxCell>
        <mxCell id="yTWM4LRYes1PWLr559-A-324" value="" style="shape=partialRectangle;html=1;whiteSpace=wrap;collapsible=0;dropTarget=0;pointerEvents=0;fillColor=none;top=0;left=0;bottom=0;right=0;points=[[0,0.5],[1,0.5]];portConstraint=eastwest;strokeColor=#E07A5F;fontColor=#393C56;" vertex="1" parent="yTWM4LRYes1PWLr559-A-295">
          <mxGeometry y="90" width="140" height="20" as="geometry" />
        </mxCell>
        <mxCell id="yTWM4LRYes1PWLr559-A-325" value="" style="shape=partialRectangle;html=1;whiteSpace=wrap;connectable=0;fillColor=none;top=0;left=0;bottom=0;right=0;overflow=hidden;strokeColor=#E07A5F;fontColor=#393C56;" vertex="1" parent="yTWM4LRYes1PWLr559-A-324">
          <mxGeometry width="31" height="20" as="geometry" />
        </mxCell>
        <mxCell id="yTWM4LRYes1PWLr559-A-326" value="IsPaid" style="shape=partialRectangle;html=1;whiteSpace=wrap;connectable=0;fillColor=none;top=0;left=0;bottom=0;right=0;align=left;spacingLeft=6;overflow=hidden;strokeColor=#E07A5F;fontColor=#393C56;" vertex="1" parent="yTWM4LRYes1PWLr559-A-324">
          <mxGeometry x="31" width="109" height="20" as="geometry" />
        </mxCell>
        <mxCell id="yTWM4LRYes1PWLr559-A-357" value="" style="shape=partialRectangle;html=1;whiteSpace=wrap;collapsible=0;dropTarget=0;pointerEvents=0;fillColor=none;top=0;left=0;bottom=0;right=0;points=[[0,0.5],[1,0.5]];portConstraint=eastwest;strokeColor=#E07A5F;fontColor=#393C56;" vertex="1" parent="yTWM4LRYes1PWLr559-A-295">
          <mxGeometry y="110" width="140" height="20" as="geometry" />
        </mxCell>
        <mxCell id="yTWM4LRYes1PWLr559-A-358" value="FK" style="shape=partialRectangle;html=1;whiteSpace=wrap;connectable=0;fillColor=none;top=0;left=0;bottom=0;right=0;overflow=hidden;strokeColor=#E07A5F;fontColor=#393C56;" vertex="1" parent="yTWM4LRYes1PWLr559-A-357">
          <mxGeometry width="31" height="20" as="geometry" />
        </mxCell>
        <mxCell id="yTWM4LRYes1PWLr559-A-359" value="AcademyID" style="shape=partialRectangle;html=1;whiteSpace=wrap;connectable=0;fillColor=none;top=0;left=0;bottom=0;right=0;align=left;spacingLeft=6;overflow=hidden;strokeColor=#E07A5F;fontColor=#393C56;" vertex="1" parent="yTWM4LRYes1PWLr559-A-357">
          <mxGeometry x="31" width="109" height="20" as="geometry" />
        </mxCell>
        <mxCell id="yTWM4LRYes1PWLr559-A-308" style="edgeStyle=orthogonalEdgeStyle;curved=0;rounded=1;sketch=0;orthogonalLoop=1;jettySize=auto;html=1;entryX=0;entryY=0.5;entryDx=0;entryDy=0;shadow=0;fontColor=#393C56;strokeWidth=3;fillColor=#ffe6cc;strokeColor=#d79b00;" edge="1" parent="WIyWlLk6GJQsqaUBKTNV-1" source="yTWM4LRYes1PWLr559-A-107" target="yTWM4LRYes1PWLr559-A-305">
          <mxGeometry relative="1" as="geometry">
            <Array as="points">
              <mxPoint x="1200" y="660" />
              <mxPoint x="1200" y="760" />
            </Array>
          </mxGeometry>
        </mxCell>
        <mxCell id="yTWM4LRYes1PWLr559-A-309" value="" style="endArrow=classic;html=1;shadow=0;fontColor=#393C56;strokeColor=#d79b00;strokeWidth=3;fillColor=#ffe6cc;entryX=0;entryY=0.5;entryDx=0;entryDy=0;startArrow=none;" edge="1" parent="WIyWlLk6GJQsqaUBKTNV-1" source="yTWM4LRYes1PWLr559-A-319" target="yTWM4LRYes1PWLr559-A-292">
          <mxGeometry width="50" height="50" relative="1" as="geometry">
            <mxPoint x="1200" y="660" as="sourcePoint" />
            <mxPoint x="1080" y="520" as="targetPoint" />
            <Array as="points">
              <mxPoint x="1200" y="380" />
            </Array>
          </mxGeometry>
        </mxCell>
        <mxCell id="yTWM4LRYes1PWLr559-A-310" value="" style="endArrow=classic;html=1;shadow=0;fontColor=#393C56;strokeColor=#005700;strokeWidth=3;fillColor=#008a00;entryX=0;entryY=0.5;entryDx=0;entryDy=0;" edge="1" parent="WIyWlLk6GJQsqaUBKTNV-1" target="yTWM4LRYes1PWLr559-A-289">
          <mxGeometry width="50" height="50" relative="1" as="geometry">
            <mxPoint x="1150" y="360" as="sourcePoint" />
            <mxPoint x="1080" y="520" as="targetPoint" />
          </mxGeometry>
        </mxCell>
        <mxCell id="yTWM4LRYes1PWLr559-A-319" value="1 - 1" style="whiteSpace=wrap;html=1;rounded=0;sketch=0;strokeColor=#b46504;fillColor=#fad7ac;rotation=-90;" vertex="1" parent="WIyWlLk6GJQsqaUBKTNV-1">
          <mxGeometry x="1176" y="480" width="50" height="20" as="geometry" />
        </mxCell>
        <mxCell id="yTWM4LRYes1PWLr559-A-321" value="" style="endArrow=none;html=1;shadow=0;fontColor=#393C56;strokeColor=#d79b00;strokeWidth=3;fillColor=#ffe6cc;entryX=0;entryY=0.5;entryDx=0;entryDy=0;" edge="1" parent="WIyWlLk6GJQsqaUBKTNV-1" target="yTWM4LRYes1PWLr559-A-319">
          <mxGeometry width="50" height="50" relative="1" as="geometry">
            <mxPoint x="1200" y="660" as="sourcePoint" />
            <mxPoint x="1300" y="380" as="targetPoint" />
            <Array as="points" />
          </mxGeometry>
        </mxCell>
        <mxCell id="yTWM4LRYes1PWLr559-A-322" value="1 - 1" style="whiteSpace=wrap;html=1;rounded=0;sketch=0;strokeColor=#b46504;fillColor=#fad7ac;rotation=0;" vertex="1" parent="WIyWlLk6GJQsqaUBKTNV-1">
          <mxGeometry x="1220" y="747" width="50" height="20" as="geometry" />
        </mxCell>
        <mxCell id="yTWM4LRYes1PWLr559-A-333" style="edgeStyle=orthogonalEdgeStyle;curved=0;rounded=1;sketch=0;orthogonalLoop=1;jettySize=auto;html=1;entryX=0;entryY=0.5;entryDx=0;entryDy=0;shadow=0;fontColor=#393C56;strokeColor=#432D57;strokeWidth=3;fillColor=#76608a;startArrow=none;" edge="1" parent="WIyWlLk6GJQsqaUBKTNV-1" source="yTWM4LRYes1PWLr559-A-375" target="yTWM4LRYes1PWLr559-A-330">
          <mxGeometry relative="1" as="geometry" />
        </mxCell>
        <mxCell id="yTWM4LRYes1PWLr559-A-334" style="edgeStyle=orthogonalEdgeStyle;curved=0;rounded=1;sketch=0;orthogonalLoop=1;jettySize=auto;html=1;entryX=1;entryY=0.5;entryDx=0;entryDy=0;shadow=0;fontColor=#393C56;strokeColor=#82b366;strokeWidth=3;fillColor=#d5e8d4;gradientColor=#97d077;" edge="1" parent="WIyWlLk6GJQsqaUBKTNV-1" source="yTWM4LRYes1PWLr559-A-283" target="yTWM4LRYes1PWLr559-A-279">
          <mxGeometry relative="1" as="geometry">
            <Array as="points">
              <mxPoint x="1960" y="315" />
              <mxPoint x="1960" y="530" />
            </Array>
          </mxGeometry>
        </mxCell>
        <mxCell id="yTWM4LRYes1PWLr559-A-360" value="" style="endArrow=classic;html=1;shadow=0;fontColor=#393C56;strokeColor=#BD7000;strokeWidth=3;fillColor=#f0a30a;entryX=1;entryY=0.5;entryDx=0;entryDy=0;" edge="1" parent="WIyWlLk6GJQsqaUBKTNV-1" target="yTWM4LRYes1PWLr559-A-357">
          <mxGeometry width="50" height="50" relative="1" as="geometry">
            <mxPoint x="560" y="240" as="sourcePoint" />
            <mxPoint x="1550" y="360" as="targetPoint" />
            <Array as="points">
              <mxPoint x="560" y="80" />
              <mxPoint x="1560" y="80" />
              <mxPoint x="1560" y="800" />
            </Array>
          </mxGeometry>
        </mxCell>
        <mxCell id="yTWM4LRYes1PWLr559-A-361" value="" style="endArrow=classic;html=1;shadow=0;fontColor=#393C56;strokeColor=#BD7000;strokeWidth=3;fillColor=#f0a30a;startArrow=none;" edge="1" parent="WIyWlLk6GJQsqaUBKTNV-1" source="yTWM4LRYes1PWLr559-A-365">
          <mxGeometry width="50" height="50" relative="1" as="geometry">
            <mxPoint x="1560" y="420" as="sourcePoint" />
            <mxPoint x="1440" y="420" as="targetPoint" />
          </mxGeometry>
        </mxCell>
        <mxCell id="yTWM4LRYes1PWLr559-A-362" value="" style="endArrow=classic;html=1;shadow=0;fontColor=#393C56;strokeColor=#BD7000;strokeWidth=3;fillColor=#f0a30a;entryX=0;entryY=0.5;entryDx=0;entryDy=0;startArrow=none;" edge="1" parent="WIyWlLk6GJQsqaUBKTNV-1" source="yTWM4LRYes1PWLr559-A-363" target="yTWM4LRYes1PWLr559-A-248">
          <mxGeometry width="50" height="50" relative="1" as="geometry">
            <mxPoint x="1560" y="470" as="sourcePoint" />
            <mxPoint x="1390" y="410" as="targetPoint" />
          </mxGeometry>
        </mxCell>
        <mxCell id="yTWM4LRYes1PWLr559-A-363" value="1 - N" style="whiteSpace=wrap;html=1;rounded=0;sketch=0;strokeColor=#6D1F00;fillColor=#a0522d;rotation=0;fontColor=#ffffff;" vertex="1" parent="WIyWlLk6GJQsqaUBKTNV-1">
          <mxGeometry x="1650" y="461" width="50" height="20" as="geometry" />
        </mxCell>
        <mxCell id="yTWM4LRYes1PWLr559-A-364" value="" style="endArrow=none;html=1;shadow=0;fontColor=#393C56;strokeColor=#BD7000;strokeWidth=3;fillColor=#f0a30a;entryX=0;entryY=0.5;entryDx=0;entryDy=0;" edge="1" parent="WIyWlLk6GJQsqaUBKTNV-1" target="yTWM4LRYes1PWLr559-A-363">
          <mxGeometry width="50" height="50" relative="1" as="geometry">
            <mxPoint x="1560" y="470" as="sourcePoint" />
            <mxPoint x="1760" y="470" as="targetPoint" />
          </mxGeometry>
        </mxCell>
        <mxCell id="yTWM4LRYes1PWLr559-A-365" value="N - 1" style="whiteSpace=wrap;html=1;rounded=0;sketch=0;strokeColor=#6D1F00;fillColor=#a0522d;rotation=0;fontColor=#ffffff;" vertex="1" parent="WIyWlLk6GJQsqaUBKTNV-1">
          <mxGeometry x="1480" y="410" width="50" height="20" as="geometry" />
        </mxCell>
        <mxCell id="yTWM4LRYes1PWLr559-A-366" value="" style="endArrow=none;html=1;shadow=0;fontColor=#393C56;strokeColor=#BD7000;strokeWidth=3;fillColor=#f0a30a;" edge="1" parent="WIyWlLk6GJQsqaUBKTNV-1" target="yTWM4LRYes1PWLr559-A-365">
          <mxGeometry width="50" height="50" relative="1" as="geometry">
            <mxPoint x="1560" y="420" as="sourcePoint" />
            <mxPoint x="1440" y="420" as="targetPoint" />
          </mxGeometry>
        </mxCell>
        <mxCell id="yTWM4LRYes1PWLr559-A-367" value="N - 1" style="whiteSpace=wrap;html=1;rounded=0;sketch=0;strokeColor=#6D1F00;fillColor=#a0522d;rotation=0;fontColor=#ffffff;" vertex="1" parent="WIyWlLk6GJQsqaUBKTNV-1">
          <mxGeometry x="1484" y="788" width="50" height="20" as="geometry" />
        </mxCell>
        <mxCell id="yTWM4LRYes1PWLr559-A-373" value="1 - 1" style="whiteSpace=wrap;html=1;rounded=0;sketch=0;strokeColor=#82b366;fillColor=#d5e8d4;rotation=-90;gradientColor=#97d077;" vertex="1" parent="WIyWlLk6GJQsqaUBKTNV-1">
          <mxGeometry x="1935" y="400" width="50" height="20" as="geometry" />
        </mxCell>
        <mxCell id="yTWM4LRYes1PWLr559-A-375" value="1 - 1" style="whiteSpace=wrap;html=1;rounded=0;sketch=0;strokeColor=#432D57;fillColor=#76608a;rotation=0;fontColor=#ffffff;" vertex="1" parent="WIyWlLk6GJQsqaUBKTNV-1">
          <mxGeometry x="1650" y="540" width="50" height="20" as="geometry" />
        </mxCell>
        <mxCell id="yTWM4LRYes1PWLr559-A-376" value="" style="edgeStyle=orthogonalEdgeStyle;curved=0;rounded=1;sketch=0;orthogonalLoop=1;jettySize=auto;html=1;entryX=0;entryY=0.5;entryDx=0;entryDy=0;shadow=0;fontColor=#393C56;strokeColor=#432D57;strokeWidth=3;fillColor=#76608a;endArrow=none;" edge="1" parent="WIyWlLk6GJQsqaUBKTNV-1" source="yTWM4LRYes1PWLr559-A-296" target="yTWM4LRYes1PWLr559-A-375">
          <mxGeometry relative="1" as="geometry">
            <mxPoint x="1450" y="720.0666666666666" as="sourcePoint" />
            <mxPoint x="1760" y="550" as="targetPoint" />
            <Array as="points">
              <mxPoint x="1620" y="720" />
              <mxPoint x="1620" y="550" />
            </Array>
          </mxGeometry>
        </mxCell>
      </root>
    </mxGraphModel>
  </diagram>
</mxfile>
